v -149.295465 -8.58555 121.019975
v -148.9616247 -18.44456161 119.5673907
v -148.4103852 -28.10728604 117.1795191
v -147.6607267 -37.50714307 113.9462969
v -146.7278339 -46.58994305 109.9428436
v -145.6383133 -55.34561714 105.2969919
v -144.4014415 -63.74724436 100.0670414
v -143.0299 -71.7863118 94.32458595
v -141.5486718 -79.50396374 88.18295424
v -139.9707468 -86.9235946 81.70688828
v -138.3039841 -94.06238703 74.9430114
v -136.5552602 -100.9395145 67.93233494
v -134.7219799 -107.547245 60.68778456
v -132.8167191 -113.9287409 53.2613725
v -130.843161 -120.1009433 45.67758898
v -128.8045431 -126.0819126 37.958852
v -126.702113 -131.8844609 30.12170873
v -124.5297246 -137.5031473 22.17042027
v -122.2923891 -142.9622663 14.12655491
v -119.9922024 -148.2770086 6.004129527
v -117.6280767 -153.4550269 -2.188006189
v -115.1992477 -158.5052613 -10.44086685
v -112.6941947 -163.4183869 -18.75351192
v -110.1192751 -168.2174429 -27.1112778
v -107.4724655 -172.9091394 -35.50744903
v -104.7505658 -177.4983607 -43.93622906
v -101.9428927 -181.9815914 -52.39387998
v -99.04490312 -186.3643609 -60.87368347
v -96.05769611 -190.6576802 -69.36824459
v -92.97530744 -194.8644909 -77.87209761
v -89.78266366 -198.9813418 -86.37929468
v -86.46732983 -203.0089045 -94.88228014
v -83.03047198 -206.957004 -103.3742264
v -79.45986936 -210.8254985 -111.8476371
v -75.72210623 -214.6045314 -120.2892042
v -71.81170595 -218.3005212 -128.6891299
v -67.71714086 -221.9160758 -137.0361034
v -63.38420992 -225.4369111 -145.3026414
v -58.78867765 -228.8607562 -153.4672369
v -53.91289584 -232.1866631 -161.5086838
v -48.64575168 -235.381827 -169.3530714
v -42.96303209 -238.4411531 -176.9573412
v -36.71586866 -241.3103579 -184.1802218
v -29.83063477 -243.9467274 -190.8923549
v -22.07117563 -246.2104833 -196.7169415
v -13.36483537 -247.9415583 -201.2025897
v -3.778190038 -248.8675467 -203.6179581
v 6.141557282 -248.7417949 -203.2889599
v 15.57014079 -247.6080674 -200.3353277
v 24.0272156 -245.7108307 -195.426764
v 31.5385525 -243.3342841 -189.327493
v 38.29428689 -240.648721 -182.5040937
v 44.35922128 -237.7165607 -175.1500066
v 49.96241144 -234.6312564 -167.4972807
v 55.10587822 -231.3953231 -159.5873357
v 59.92384624 -228.0496097 -151.5193072
v 64.45044931 -224.6008805 -143.3266572
v 68.71303118 -221.0529086 -135.0350711
v 72.76952836 -217.4212684 -126.6765486
v 76.63960577 -213.7066557 -118.2661272
v 80.32497784 -209.9006709 -109.8136055
v 83.86766575 -206.0160646 -101.3359082
v 87.27901946 -202.0519831 -92.84108856
v 90.55905499 -197.9997639 -84.33611852
v 93.72213348 -193.8597302 -75.82913155
v 96.78459031 -189.635459 -67.3267519
v 99.75305567 -185.3242555 -58.83463844
v 102.6243289 -180.9129076 -50.36055439
v 105.4087302 -176.4019045 -41.90999923
v 108.1150063 -171.7920127 -33.48750521
v 110.7467606 -167.0787477 -25.09865786
v 113.3040346 -162.2519774 -16.75139806
v 115.7855012 -157.2977983 -8.45608917
v 118.2008365 -152.2215471 -0.2153245416
v 120.5517217 -147.0160919 7.963216896
v 122.8389796 -141.6727133 16.07059333
v 125.0570538 -136.1674805 24.08836
v 127.2098425 -130.4983384 32.00899976
v 129.2992503 -124.6599128 39.82276386
v 131.3245865 -118.6406685 47.5151962
v 133.2845579 -112.4277122 55.06941147
v 135.1665965 -105.9722181 62.43754529
v 136.9668702 -99.25387007 69.58726913
v 138.6806504 -92.25646237 76.48559416
v 140.3046129 -84.97369346 83.10461035
v 141.8382907 -77.41199315 89.42631851
v 143.2783457 -69.57121555 95.42151829
v 144.6009435 -61.39317479 100.9737929
v 145.7870582 -52.85549109 105.9867813
v 146.8246352 -43.97399928 110.399792
v 147.7213076 -34.81221563 114.2358171
v 148.486583 -25.42844715 117.5287563
v 149.130428 -15.87287469 120.3160514
v 149.6820552 -6.207485776 122.7171609
v 149.821154 3.51655936 123.3247341
v 149.290918 13.20502616 121.0134314
v 148.6700442 22.78910979 118.3222156
v 147.9462788 32.23480338 115.2018003
v 147.0928893 41.47449792 111.5440878
v 146.0916529 50.43356063 107.2791393
v 144.9420091 59.06031117 102.412577
v 143.6521977 67.3279554 96.988852
v 142.2440522 75.26191335 91.11140856
v 140.7415429 82.91775553 84.89605158
v 139.1429806 90.28008173 78.35870215
v 137.450731 97.34661627 71.52547182
v 135.6707954 104.1307912 64.43336552
v 133.8095675 110.6528979 57.11934732
v 131.8757957 116.9462241 49.62533596
v 129.8697519 123.021525 41.97185035
v 127.7951991 128.9008254 34.18469838
v 125.6575308 134.6095084 26.28847528
v 123.4571322 140.1582506 18.29598584
v 121.1937586 145.5561493 10.21809646
v 118.8606167 150.7988118 2.058191111
v 116.4605334 155.9045758 -6.168815634
v 113.994697 160.8868786 -14.45186584
v 111.4611959 165.7524179 -22.7838051
v 108.8553075 170.5037953 -31.15924218
v 106.167176 175.1377272 -39.57441045
v 103.4006476 179.670602 -48.01910969
v 100.5540419 184.1093917 -56.48714386
v 97.62091646 188.4556703 -64.97367577
v 94.58212005 192.7008115 -73.47420291
v 91.44269815 196.8599014 -81.9806469
v 88.19662575 200.9366808 -90.48689547
v 84.83235481 204.9311987 -98.98627028
v 81.32065088 208.8337271 -107.4686917
v 77.66859267 212.6575366 -115.9275615
v 73.86145313 216.4021761 -124.3534024
v 69.86142511 220.058111 -132.7285726
v 65.64695277 223.6249864 -141.0365969
v 61.20889843 227.1062107 -149.2640493
v 56.47411578 230.480818 -157.3692411
v 51.41136881 233.7436178 -165.3201351
v 45.97193149 236.8823658 -173.0687369
v 40.01289912 239.8501811 -180.4948513
v 33.49855101 242.62483 -187.5154958
v 26.19424041 245.0925745 -193.8348206
v 17.9888062 247.1281354 -199.0910656
v 8.82601705 248.5096182 -202.6823235
v -1.024777491 248.9448364 -203.8206335
v -10.79723181 248.3065318 -202.1525765
v -19.79157382 246.7724282 -198.1688172
v -27.75666322 244.6080054 -192.5895581
v -34.88477534 242.0689975 -186.1037712
v -41.29176105 239.2556837 -178.998984
v -47.120865 236.2446854 -171.4882155
v -52.4838791 233.0809427 -163.6962512
v -57.48262855 229.7966843 -155.7137544
v -62.13556112 226.3933455 -147.5730365
v -66.53649006 222.8982106 -139.3316309
v -70.70628469 219.3134624 -131.0087389
v -74.6556997 215.6352312 -122.6192304
v -78.43616277 211.8774905 -114.1872312
v -82.06373225 208.0406584 -105.7236301
v -85.53033919 204.1111193 -97.23509997
v -88.87296017 200.1020076 -88.73410635
v -92.10062643 196.0116131 -80.22738878
v -95.21995194 191.8361626 -71.72153043
v -98.22831809 187.5630638 -63.22419204
v -101.1465048 183.2012498 -54.74053495
v -103.979537 178.7471818 -46.2759628
v -106.7304671 174.1950889 -37.83647466
v -109.3956169 169.5295355 -29.43147547
v -111.987029 164.7559831 -21.06421276
v -114.508796 159.8708174 -12.7402283
v -116.9631353 154.8678362 -4.466187053
v -119.3472719 149.7306048 3.745875415
v -121.6624223 144.4490216 11.8857316
v -123.9148659 139.0254189 19.94933355
v -126.1041553 133.4490597 27.92563064
v -128.2306733 127.7111022 35.80374644
v -130.2884464 121.7848679 43.55973974
v -132.2774312 115.6590352 51.17718181
v -134.1992524 109.3289474 58.64306161
v -136.0515728 102.7813514 65.93680609
v -137.8289211 95.99557981 73.02883796
v -139.523007 88.94377683 79.87740863
v -141.1231479 81.59381036 86.4279246
v -142.6287851 73.95046207 92.65598659
v -144.0273624 65.98930809 98.4980249
v -145.3065559 57.69830079 103.8909287
v -146.452414 49.07165396 108.7630847
v -147.4261482 40.06728288 112.9367083
v -148.2225376 30.74061214 116.3678365
v -148.8230813 21.13679396 118.9664369
v -149.2104079 11.32124452 120.6495754
v -149.3702737 1.379527922 121.346947
v -9.384415 -241.6535169 -191.6587171
v 0.615585 -241.6535169 -192.1361139
v 10.615585 -241.6535169 -191.5203976
v -34.384415 -232.9932629 -172.1549238
v -24.384415 -232.9932629 -175.3671323
v -14.384415 -232.9932629 -177.4897697
v -4.384415 -232.9932629 -178.512275
v 5.615585 -232.9932629 -178.4358038
v 15.615585 -232.9932629 -177.2639146
v 25.615585 -232.9932629 -175.0167892
v 35.615585 -232.9932629 -171.6953566
v -49.384415 -224.3330088 -152.296979
v -39.384415 -224.3330088 -157.1383553
v -29.384415 -224.3330088 -160.856214
v -19.384415 -224.3330088 -163.5159746
v -9.384415 -224.3330088 -165.100287
v 0.615585 -224.3330088 -165.5767972
v 10.615585 -224.3330088 -164.9459781
v 20.615585 -224.3330088 -163.2436711
v 30.615585 -224.3330088 -160.4610861
v 40.615585 -224.3330088 -156.5940942
v 50.615585 -224.3330088 -151.6263466
v -64.384415 -215.6727548 -130.4800647
v -54.384415 -215.6727548 -136.9423197
v -44.384415 -215.6727548 -142.3019345
v -34.384415 -215.6727548 -146.6163667
v -24.384415 -215.6727548 -149.7910924
v -14.384415 -215.6727548 -151.9023881
v -4.384415 -215.6727548 -152.9391737
v 5.615585 -215.6727548 -152.8508798
v 15.615585 -215.6727548 -151.6996744
v 25.615585 -215.6727548 -149.4661181
v 35.615585 -215.6727548 -146.1237181
v 45.615585 -215.6727548 -141.7140308
v 55.615585 -215.6727548 -136.1973942
v 65.615585 -215.6727548 -129.6203424
v -69.384415 -207.0125008 -114.7977098
v -59.384415 -207.0125008 -121.8058461
v -49.384415 -207.0125008 -127.7045443
v -39.384415 -207.0125008 -132.5542767
v -29.384415 -207.0125008 -136.3004819
v -19.384415 -207.0125008 -138.9447745
v -9.384415 -207.0125008 -140.5195879
v 0.615585 -207.0125008 -141.0032627
v 10.615585 -207.0125008 -140.3780088
v 20.615585 -207.0125008 -138.6888544
v 30.615585 -207.0125008 -135.8819432
v 40.615585 -207.0125008 -132.0354018
v 50.615585 -207.0125008 -127.045824
v 60.615585 -207.0125008 -120.9915241
v 70.615585 -207.0125008 -113.8662441
v -74.384415 -198.3522467 -99.33898141
v -64.384415 -198.3522467 -106.8843109
v -54.384415 -198.3522467 -113.335252
v -44.384415 -198.3522467 -118.7218189
v -34.384415 -198.3522467 -123.0145831
v -24.384415 -198.3522467 -126.2191876
v -14.384415 -198.3522467 -128.315539
v -4.384415 -198.3522467 -129.3635484
v 5.615585 -198.3522467 -129.2807542
v 15.615585 -198.3522467 -128.1214251
v 25.615585 -198.3522467 -125.869301
v 35.615585 -198.3522467 -122.5458703
v 45.615585 -198.3522467 -118.1319633
v 55.615585 -198.3522467 -112.6058875
v 65.615585 -198.3522467 -106.0075649
v 75.615585 -198.3522467 -98.32828328
v -89.384415 -189.6919927 -74.9129885
v -79.384415 -189.6919927 -84.07945595
v -69.384415 -189.6919927 -92.17885099
v -59.384415 -189.6919927 -99.18536554
v -49.384415 -189.6919927 -105.1156136
v -39.384415 -189.6919927 -109.9468703
v -29.384415 -189.6919927 -113.6944932
v -19.384415 -189.6919927 -116.3718764
v -9.384415 -189.6919927 -117.903491
v 0.615585 -189.6919927 -118.3945489
v 10.615585 -189.6919927 -117.7768466
v 20.615585 -189.6919927 -116.0834359
v 30.615585 -189.6919927 -113.2894926
v 40.615585 -189.6919927 -109.4253139
v 50.615585 -189.6919927 -104.4648314
v 60.615585 -189.6919927 -98.394603
v 70.615585 -189.6919927 -91.2496844
v 80.615585 -189.6919927 -83.00436971
v -94.384415 -181.0317387 -59.34708946
v -84.384415 -181.0317387 -69.06423766
v -74.384415 -181.0317387 -77.70949623
v -64.384415 -181.0317387 -85.26659735
v -54.384415 -181.0317387 -91.74107695
v -44.384415 -181.0317387 -97.10830156
v -34.384415 -181.0317387 -101.3951445
v -24.384415 -181.0317387 -104.6009997
v -14.384415 -181.0317387 -106.7272153
v -4.384415 -181.0317387 -107.7446903
v 5.615585 -181.0317387 -107.6696335
v 15.615585 -181.0317387 -106.5182346
v 25.615585 -181.0317387 -104.2725243
v 35.615585 -181.0317387 -100.9333505
v 45.615585 -181.0317387 -96.50161138
v 55.615585 -181.0317387 -90.99902973
v 65.615585 -181.0317387 -84.3911999
v 75.615585 -181.0317387 -76.71120311
v 85.615585 -181.0317387 -67.93672924
v -99.384415 -172.3714846 -44.00263297
v -89.384415 -172.3714846 -54.27905823
v -79.384415 -172.3714846 -63.4481724
v -69.384415 -172.3714846 -71.54443351
v -59.384415 -172.3714846 -78.5671732
v -49.384415 -172.3714846 -84.49307667
v -39.384415 -172.3714846 -89.3221368
v -29.384415 -172.3714846 -93.06119993
v -19.384415 -172.3714846 -95.72866162
v -9.384415 -172.3714846 -97.28340273
v 0.615585 -172.3714846 -97.77787864
v 10.615585 -172.3714846 -97.16246166
v 20.615585 -172.3714846 -95.47558789
v 30.615585 -172.3714846 -92.67242427
v 40.615585 -172.3714846 -88.78399728
v 50.615585 -172.3714846 -83.81237633
v 60.615585 -172.3714846 -77.7586769
v 70.615585 -172.3714846 -70.61627336
v 80.615585 -172.3714846 -62.37719486
v 90.615585 -172.3714846 -53.06667107
v 100.615585 -172.3714846 -42.66681322
v -104.384415 -163.7112306 -28.88274736
v -94.384415 -163.7112306 -39.69239968
v -84.384415 -163.7112306 -49.42941212
v -74.384415 -163.7112306 -58.07532668
v -64.384415 -163.7112306 -65.62748448
v -54.384415 -163.7112306 -72.0881896
v -44.384415 -163.7112306 -77.46552343
v -34.384415 -163.7112306 -81.75636427
v -24.384415 -163.7112306 -84.95423848
v -14.384415 -163.7112306 -87.08468028
v -4.384415 -163.7112306 -88.10551539
v 5.615585 -163.7112306 -88.04018884
v 15.615585 -163.7112306 -86.87738343
v 25.615585 -163.7112306 -84.63477533
v 35.615585 -163.7112306 -81.28654106
v 45.615585 -163.7112306 -76.86705285
v 55.615585 -163.7112306 -71.3684411
v 65.615585 -163.7112306 -64.74139606
v 75.615585 -163.7112306 -57.06054409
v 85.615585 -163.7112306 -48.27642994
v 95.615585 -163.7112306 -38.4226039
v 105.615585 -163.7112306 -27.468735
v -109.384415 -155.0509765 -13.99019303
v -99.384415 -155.0509765 -25.34431468
v -89.384415 -155.0509765 -35.61385823
v -79.384415 -155.0509765 -44.79643209
v -69.384415 -155.0509765 -52.89173285
v -59.384415 -155.0509765 -59.91239101
v -49.384415 -155.0509765 -65.84631995
v -39.384415 -155.0509765 -70.6652144
v -29.384415 -155.0509765 -74.41855245
v -19.384415 -155.0509765 -77.08018659
v -9.384415 -155.0509765 -78.63872724
v 0.615585 -155.0509765 -79.12462722
v 10.615585 -155.0509765 -78.49471303
v 20.615585 -155.0509765 -76.80998473
v 30.615585 -155.0509765 -74.02447257
v 40.615585 -155.0509765 -70.1362637
v 50.615585 -155.0509765 -65.16646176
v 60.615585 -155.0509765 -59.10975981
v 70.615585 -155.0509765 -51.96964804
v 80.615585 -155.0509765 -43.73529293
v 90.615585 -155.0509765 -34.41498285
v 100.615585 -155.0509765 -23.99755514
v -104.384415 -146.3907225 -11.20269535
v -94.384415 -146.3907225 -22.03069002
v -84.384415 -146.3907225 -31.74372365
v -74.384415 -146.3907225 -40.39442661
v -64.384415 -146.3907225 -47.94830088
v -54.384415 -146.3907225 -54.41438367
v -44.384415 -146.3907225 -59.82037496
v -34.384415 -146.3907225 -64.08757792
v -24.384415 -146.3907225 -67.2956195
v -14.384415 -146.3907225 -69.41642442
v -4.384415 -146.3907225 -70.44298297
v 5.615585 -146.3907225 -70.38457774
v 15.615585 -146.3907225 -69.21155045
v 25.615585 -146.3907225 -66.97853531
v 35.615585 -146.3907225 -63.62702118
v 45.615585 -146.3907225 -59.19235007
v 55.615585 -146.3907225 -53.68519629
v 65.615585 -146.3907225 -47.07335198
v 75.615585 -146.3907225 -39.40083515
v 85.615585 -146.3907225 -30.61514387
v 95.615585 -146.3907225 -20.75739587
v 105.615585 -146.3907225 -9.795896154
v -109.384415 -137.7304685 2.69984175
v -99.384415 -137.7304685 -8.656046361
v -89.384415 -137.7304685 -18.91953756
v -79.384415 -137.7304685 -28.11793386
v -69.384415 -137.7304685 -36.21557011
v -59.384415 -137.7304685 -43.23524814
v -49.384415 -137.7304685 -49.16156571
v -39.384415 -137.7304685 -54.00650095
v -29.384415 -137.7304685 -57.75788878
v -19.384415 -137.7304685 -60.41226756
v -9.384415 -137.7304685 -61.96562552
v 0.615585 -137.7304685 -62.4376791
v 10.615585 -137.7304685 -61.83903048
v 20.615585 -137.7304685 -60.12874167
v 30.615585 -137.7304685 -57.33450711
v 40.615585 -137.7304685 -53.44779963
v 50.615585 -137.7304685 -48.4807909
v 60.615585 -137.7304685 -42.42173422
v 70.615585 -137.7304685 -35.28025877
v 80.615585 -137.7304685 -27.04992954
v 90.615585 -137.7304685 -17.71534948
v 100.615585 -137.7304685 -7.316131453
v 110.615585 -137.7304685 4.167574376
v -114.384415 -129.0702144 16.37916908
v -104.384415 -129.0702144 4.486891756
v -94.384415 -129.0702144 -6.328860161
v -84.384415 -129.0702144 -16.05973035
v -74.384415 -129.0702144 -24.70481992
v -64.384415 -129.0702144 -32.25979161
v -54.384415 -129.0702144 -38.71688587
v -44.384415 -129.0702144 -44.10883179
v -34.384415 -129.0702144 -48.41420687
v -24.384415 -129.0702144 -51.60340617
v -14.384415 -129.0702144 -53.70711437
v -4.384415 -129.0702144 -54.75075691
v 5.615585 -129.0702144 -54.68899094
v 15.615585 -129.0702144 -53.51927109
v 25.615585 -129.0702144 -51.27651225
v 35.615585 -129.0702144 -47.92891405
v 45.615585 -129.0702144 -43.4999682
v 55.615585 -129.0702144 -37.99224076
v 65.615585 -129.0702144 -31.38428448
v 75.615585 -129.0702144 -23.70123417
v 85.615585 -129.0702144 -14.92109942
v 95.615585 -129.0702144 -5.05927251
v 105.615585 -129.0702144 5.903756429
v 115.615585 -129.0702144 17.93690447
v -119.384415 -120.4099604 29.86762563
v -109.384415 -120.4099604 17.41352602
v -99.384415 -120.4099604 6.057028996
v -89.384415 -120.4099604 -4.214815502
v -79.384415 -120.4099604 -13.4097853
v -69.384415 -120.4099604 -21.50357685
v -59.384415 -120.4099604 -28.51836547
v -49.384415 -120.4099604 -34.40887227
v -39.384415 -120.4099604 -39.27503486
v -29.384415 -120.4099604 -43.02780998
v -19.384415 -120.4099604 -45.68255908
v -9.384415 -120.4099604 -47.28037594
v 0.615585 -120.4099604 -47.75924683
v 10.615585 -120.4099604 -47.1410876
v 20.615585 -120.4099604 -45.42065562
v 30.615585 -120.4099604 -42.61880119
v 40.615585 -120.4099604 -38.73396789
v 50.615585 -120.4099604 -33.74513705
v 60.615585 -120.4099604 -27.70762225
v 70.615585 -120.4099604 -20.57116236
v 80.615585 -120.4099604 -12.33446377
v 90.615585 -120.4099604 -3.008235921
v 100.615585 -120.4099604 7.399008541
v 110.615585 -120.4099604 18.88052119
v 120.615585 -120.4099604 31.47592679
v -124.384415 -111.7497064 43.10330977
v -114.384415 -111.7497064 30.1048337
v -104.384415 -111.7497064 18.21217542
v -94.384415 -111.7497064 7.406458931
v -84.384415 -111.7497064 -2.338242556
v -74.384415 -111.7497064 -10.97845763
v -64.384415 -111.7497064 -18.53007381
v -54.384415 -111.7497064 -24.99567681
v -44.384415 -111.7497064 -30.35615992
v -34.384415 -111.7497064 -34.66543574
v -24.384415 -111.7497064 -37.87058886
v -14.384415 -111.7497064 -40.00944647
v -4.384415 -111.7497064 -41.03270618
v 5.615585 -111.7497064 -40.96085787
v 15.615585 -111.7497064 -39.82331229
v 25.615585 -111.7497064 -37.53204038
v 35.615585 -111.7497064 -34.18597255
v 45.615585 -111.7497064 -29.76937445
v 55.615585 -111.7497064 -24.24799173
v 65.615585 -111.7497064 -17.66386609
v 75.615585 -111.7497064 -9.972862373
v 85.615585 -111.7497064 -1.188791356
v 95.615585 -111.7497064 8.670040856
v 105.615585 -111.7497064 19.62762381
v 115.615585 -111.7497064 31.66827908
v 125.615585 -111.7497064 44.78685542
v -129.384415 -103.0894523 56.13974256
v -119.384415 -103.0894523 42.60541118
v -109.384415 -103.0894523 30.15049073
v -99.384415 -103.0894523 18.78367779
v -89.384415 -103.0894523 8.516450981
v -79.384415 -103.0894523 -0.6736771967
v -69.384415 -103.0894523 -8.770121906
v -59.384415 -103.0894523 -15.77118992
v -49.384415 -103.0894523 -21.69212099
v -39.384415 -103.0894523 -26.51719156
v -29.384415 -103.0894523 -30.27053632
v -19.384415 -103.0894523 -32.96466082
v -9.384415 -103.0894523 -34.52133942
v 0.615585 -103.0894523 -35.00739129
v 10.615585 -103.0894523 -34.39561649
v 20.615585 -103.0894523 -32.67463019
v 30.615585 -103.0894523 -29.88914211
v 40.615585 -103.0894523 -26.00012122
v 50.615585 -103.0894523 -21.00584626
v 60.615585 -103.0894523 -14.97891687
v 70.615585 -103.0894523 -7.831899219
v 80.615585 -103.0894523 0.4051078638
v 90.615585 -103.0894523 9.724655948
v 100.615585 -103.0894523 20.13970244
v 110.615585 -103.0894523 31.62107898
v 120.615585 -103.0894523 44.19388085
v -124.384415 -94.42919828 54.86027599
v -114.384415 -94.42919828 41.87728885
v -104.384415 -94.42919828 29.96975931
v -94.384415 -94.42919828 19.15421118
v -84.384415 -94.42919828 9.420891568
v -74.384415 -94.42919828 0.7727939073
v -64.384415 -94.42919828 -6.780683647
v -54.384415 -94.42919828 -13.24723158
v -44.384415 -94.42919828 -18.60632308
v -34.384415 -94.42919828 -22.91965238
v -24.384415 -94.42919828 -26.12356276
v -14.384415 -94.42919828 -28.25189408
v -4.384415 -94.42919828 -29.29780049
v 5.615585 -94.42919828 -29.23042188
v 15.615585 -94.42919828 -28.03758907
v 25.615585 -94.42919828 -25.79041805
v 35.615585 -94.42919828 -22.45141477
v 45.615585 -94.42919828 -18.01098815
v 55.615585 -94.42919828 -12.49957098
v 65.615585 -94.42919828 -5.911606821
v 75.615585 -94.42919828 1.789861285
v 85.615585 -94.42919828 10.55989184
v 95.615585 -94.42919828 20.42064597
v 105.615585 -94.42919828 31.37385707
v 115.615585 -94.42919828 43.40553717
v 125.615585 -94.42919828 56.50862377
v -129.384415 -85.76894424 66.89512134
v -119.384415 -85.76894424 53.35196788
v -109.384415 -85.76894424 40.91815807
v -99.384415 -85.76894424 29.56157387
v -89.384415 -85.76894424 19.29410436
v -79.384415 -85.76894424 10.11149999
v -69.384415 -85.76894424 1.996702028
v -59.384415 -85.76894424 -5.013341682
v -49.384415 -85.76894424 -10.92245094
v -39.384415 -85.76894424 -15.75523443
v -29.384415 -85.76894424 -19.52782567
v -19.384415 -85.76894424 -22.18537513
v -9.384415 -85.76894424 -23.78228255
v 0.615585 -85.76894424 -24.2750147
v 10.615585 -85.76894424 -23.64707357
v 20.615585 -85.76894424 -21.93489877
v 30.615585 -85.76894424 -19.10906805
v 40.615585 -85.76894424 -15.23297173
v 50.615585 -85.76894424 -10.24604612
v 60.615585 -85.76894424 -4.19974918
v 70.615585 -85.76894424 2.939478653
v 80.615585 -85.76894424 11.18694216
v 90.615585 -85.76894424 20.48138886
v 100.615585 -85.76894424 30.90535018
v 110.615585 -85.76894424 42.38408727
v 120.615585 -85.76894424 54.92681741
v 130.615585 -85.76894424 68.51757607
v -134.384415 -77.10869021 78.71582823
v -124.384415 -77.10869021 64.6148629
v -114.384415 -77.10869021 51.6252665
v -104.384415 -77.10869021 39.73824716
v -94.384415 -77.10869021 28.93202702
v -84.384415 -77.10869021 19.20313449
v -74.384415 -77.10869021 10.56083742
v -64.384415 -77.10869021 3.007348615
v -54.384415 -77.10869021 -3.45225781
v -44.384415 -77.10869021 -8.836397621
v -34.384415 -77.10869021 -13.13993484
v -24.384415 -77.10869021 -16.35949395
v -14.384415 -77.10869021 -18.47452843
v -4.384415 -77.10869021 -19.53627504
v 5.615585 -77.10869021 -19.46527652
v 15.615585 -77.10869021 -18.26903653
v 25.615585 -77.10869021 -16.0119495
v 35.615585 -77.10869021 -12.66738278
v 45.615585 -77.10869021 -8.222786388
v 55.615585 -77.10869021 -2.700257186
v 65.615585 -77.10869021 3.886680122
v 75.615585 -77.10869021 11.56887645
v 85.615585 -77.10869021 20.32973846
v 95.615585 -77.10869021 30.20921064
v 105.615585 -77.10869021 41.12822502
v 115.615585 -77.10869021 53.10144032
v 125.615585 -77.10869021 66.14376365
v 135.615585 -77.10869021 80.25042307
v -129.384415 -68.44843617 75.67428058
v -119.384415 -68.44843617 62.13254907
v -109.384415 -68.44843617 49.69295972
v -99.384415 -68.44843617 38.33915238
v -89.384415 -68.44843617 28.08623873
v -79.384415 -68.44843617 18.88929908
v -69.384415 -68.44843617 10.79657106
v -59.384415 -68.44843617 3.782319654
v -49.384415 -68.44843617 -2.116317255
v -39.384415 -68.44843617 -6.964538835
v -29.384415 -68.44843617 -10.71563262
v -19.384415 -68.44843617 -13.38880157
v -9.384415 -68.44843617 -14.99330723
v 0.615585 -68.44843617 -15.48607906
v 10.615585 -68.44843617 -14.86144388
v 20.615585 -68.44843617 -13.1135944
v 30.615585 -68.44843617 -10.30180972
v 40.615585 -68.44843617 -6.443010542
v 50.615585 -68.44843617 -1.446279686
v 60.615585 -68.44843617 4.594754637
v 70.615585 -68.44843617 11.73175583
v 80.615585 -68.44843617 19.96122513
v 90.615585 -68.44843617 29.28390889
v 100.615585 -68.44843617 39.63938495
v 110.615585 -68.44843617 51.05028313
v 120.615585 -68.44843617 63.55316119
v 130.615585 -68.44843617 77.15053344
v -134.384415 -59.78818213 86.50991734
v -124.384415 -59.78818213 72.41748041
v -114.384415 -59.78818213 59.43404009
v -104.384415 -59.78818213 47.53207938
v -94.384415 -59.78818213 36.72061197
v -84.384415 -59.78818213 27.01529581
v -74.384415 -59.78818213 18.35488662
v -64.384415 -59.78818213 10.81195691
v -54.384415 -59.78818213 4.359820664
v -44.384415 -59.78818213 -1.023330575
v -34.384415 -59.78818213 -5.327380973
v -24.384415 -59.78818213 -8.538347885
v -14.384415 -59.78818213 -10.67635977
v -4.384415 -59.78818213 -11.72511822
v 5.615585 -59.78818213 -11.64917561
v 15.615585 -59.78818213 -10.46862592
v 25.615585 -59.78818213 -8.200300596
v 35.615585 -59.78818213 -4.858135686
v 45.615585 -59.78818213 -0.4377816891
v 55.615585 -59.78818213 5.08091166
v 65.615585 -59.78818213 11.67266049
v 75.615585 -59.78818213 19.3691205
v 85.615585 -59.78818213 28.11694851
v 95.615585 -59.78818213 37.9238228
v 105.615585 -59.78818213 48.79164017
v 115.615585 -59.78818213 60.76850651
v 125.615585 -59.78818213 73.85339066
v 135.615585 -59.78818213 88.02875655
v -139.384415 -51.12792809 97.10761746
v -129.384415 -51.12792809 82.48794289
v -119.384415 -51.12792809 68.94846265
v -109.384415 -51.12792809 56.50483826
v -99.384415 -51.12792809 45.14430902
v -89.384415 -51.12792809 34.89634495
v -79.384415 -51.12792809 25.71301849
v -69.384415 -51.12792809 17.61913298
v -59.384415 -51.12792809 10.60043089
v -49.384415 -51.12792809 4.679492061
v -39.384415 -51.12792809 -0.1441894004
v -29.384415 -51.12792809 -3.887416736
v -19.384415 -51.12792809 -6.556598358
v -9.384415 -51.12792809 -8.171218046
v 0.615585 -51.12792809 -8.66084295
v 10.615585 -51.12792809 -8.035688927
v 20.615585 -51.12792809 -6.286710831
v 30.615585 -51.12792809 -3.490244983
v 40.615585 -51.12792809 0.401848138
v 50.615585 -51.12792809 5.374179056
v 60.615585 -51.12792809 11.41288575
v 70.615585 -51.12792809 18.5494845
v 80.615585 -51.12792809 26.71639304
v 90.615585 -51.12792809 35.99270056
v 100.615585 -51.12792809 46.3416014
v 110.615585 -51.12792809 57.78895896
v 120.615585 -51.12792809 70.32619625
v 130.615585 -51.12792809 83.9353613
v -134.384415 -42.46767405 92.32214267
v -124.384415 -42.46767405 78.25647636
v -114.384415 -42.46767405 65.25018647
v -104.384415 -42.46767405 53.35003111
v -94.384415 -42.46767405 42.55493529
v -84.384415 -42.46767405 32.84356051
v -74.384415 -42.46767405 24.17965268
v -64.384415 -42.46767405 16.65980625
v -54.384415 -42.46767405 10.18939377
v -44.384415 -42.46767405 4.81973466
v -34.384415 -42.46767405 0.5289333162
v -24.384415 -42.46767405 -2.704717354
v -14.384415 -42.46767405 -4.831168216
v -4.384415 -42.46767405 -5.88392912
v 5.615585 -42.46767405 -5.810844817
v 15.615585 -42.46767405 -4.628444416
v 25.615585 -42.46767405 -2.354758095
v 35.615585 -42.46767405 0.9886229773
v 45.615585 -42.46767405 5.418805405
v 55.615585 -42.46767405 10.92224984
v 65.615585 -42.46767405 17.47857984
v 75.615585 -42.46767405 25.12431639
v 85.615585 -42.46767405 33.85696565
v 95.615585 -42.46767405 43.69209964
v 105.615585 -42.46767405 54.58110721
v 115.615585 -42.46767405 66.55664907
v 125.615585 -42.46767405 79.61383906
v 135.615585 -42.46767405 93.70961487
v -139.384415 -33.80742002 101.9331412
v -129.384415 -33.80742002 87.32604025
v -119.384415 -33.80742002 73.80726132
v -109.384415 -33.80742002 61.3410009
v -99.384415 -33.80742002 50.00257978
v -89.384415 -33.80742002 39.7415361
v -79.384415 -33.80742002 30.54577683
v -69.384415 -33.80742002 22.46912661
v -59.384415 -33.80742002 15.4494843
v -49.384415 -33.80742002 9.523430824
v -39.384415 -33.80742002 4.695717161
v -29.384415 -33.80742002 0.9549192146
v -19.384415 -33.80742002 -1.701030436
v -9.384415 -33.80742002 -3.313519929
v 0.615585 -33.80742002 -3.803503372
v 10.615585 -33.80742002 -3.17012127
v 20.615585 -33.80742002 -1.438168069
v 30.615585 -33.80742002 1.372854703
v 40.615585 -33.80742002 5.243078523
v 50.615585 -33.80742002 10.19574589
v 60.615585 -33.80742002 16.21540564
v 70.615585 -33.80742002 23.32114656
v 80.615585 -33.80742002 31.51587601
v 90.615585 -33.80742002 40.77939143
v 100.615585 -33.80742002 51.13918637
v 110.615585 -33.80742002 62.56240499
v 120.615585 -33.80742002 75.08366012
v 130.615585 -33.80742002 88.66395845
v 140.615585 -33.80742002 103.3934062
v -134.384415 -25.14716598 96.15923006
v -124.384415 -25.14716598 82.09695864
v -114.384415 -25.14716598 69.12821575
v -104.384415 -25.14716598 57.2238265
v -94.384415 -25.14716598 46.41470617
v -84.384415 -25.14716598 36.67875008
v -74.384415 -25.14716598 28.05975974
v -64.384415 -25.14716598 20.50207547
v -54.384415 -25.14716598 14.0563743
v -44.384415 -25.14716598 8.685951236
v -34.384415 -25.14716598 4.399835151
v -24.384415 -25.14716598 1.186845417
v -14.384415 -25.14716598 -0.9566965085
v -4.384415 -25.14716598 -2.016494106
v 5.615585 -25.14716598 -1.946937765
v 15.615585 -25.14716598 -0.7413064438
v 25.615585 -25.14716598 1.504910133
v 35.615585 -25.14716598 4.85280686
v 45.615585 -25.14716598 9.248327695
v 55.615585 -25.14716598 14.722637
v 65.615585 -25.14716598 21.2999368
v 75.615585 -25.14716598 28.94491992
v 85.615585 -25.14716598 37.66144466
v 95.615585 -25.14716598 47.46071943
v 105.615585 -25.14716598 58.38850027
v 115.615585 -25.14716598 70.38745821
v 125.615585 -25.14716598 83.4786879
v 135.615585 -25.14716598 97.70309469
v -139.384415 -16.48691194 104.8262977
v -129.384415 -16.48691194 90.17690812
v -119.384415 -16.48691194 76.64632633
v -109.384415 -16.48691194 64.21196449
v -99.384415 -16.48691194 52.874353
v -89.384415 -16.48691194 42.58323044
v -79.384415 -16.48691194 33.42491762
v -69.384415 -16.48691194 25.32809166
v -59.384415 -16.48691194 18.33802638
v -49.384415 -16.48691194 12.41546138
v -39.384415 -16.48691194 7.580255607
v -29.384415 -16.48691194 3.843298855
v -19.384415 -16.48691194 1.187504129
v -9.384415 -16.48691194 -0.4090021387
v 0.615585 -16.48691194 -0.9511768577
v 10.615585 -16.48691194 -0.2759120159
v 20.615585 -16.48691194 1.46394171
v 30.615585 -16.48691194 4.246299566
v 40.615585 -16.48691194 8.101110235
v 50.615585 -16.48691194 13.03320544
v 60.615585 -16.48691194 19.04547125
v 70.615585 -16.48691194 26.16050331
v 80.615585 -16.48691194 34.37306528
v 90.615585 -16.48691194 43.68945897
v 100.615585 -16.48691194 54.09110929
v 110.615585 -16.48691194 65.5981869
v 120.615585 -16.48691194 78.2197065
v 130.615585 -16.48691194 91.9491454
v 140.615585 -16.48691194 106.7657586
v -134.384415 -7.826657903 98.08122419
v -124.384415 -7.826657903 83.99312193
v -114.384415 -7.826657903 70.9905136
v -104.384415 -7.826657903 59.08531084
v -94.384415 -7.826657903 48.28088024
v -84.384415 -7.826657903 38.56650384
v -74.384415 -7.826657903 29.92100493
v -64.384415 -7.826657903 22.39599104
v -54.384415 -7.826657903 15.93047181
v -44.384415 -7.826657903 10.54049975
v -34.384415 -7.826657903 6.265053698
v -24.384415 -7.826657903 3.067252088
v -14.384415 -7.826657903 0.943752568
v -4.384415 -7.826657903 -0.09306805691
v 5.615585 -7.826657903 -0.007468231762
v 15.615585 -7.826657903 1.165657706
v 25.615585 -7.826657903 3.390933596
v 35.615585 -7.826657903 6.715895625
v 45.615585 -7.826657903 11.13870807
v 55.615585 -7.826657903 16.66516205
v 65.615585 -7.826657903 23.27036794
v 75.615585 -7.826657903 30.99792764
v 85.615585 -7.826657903 39.80953579
v 95.615585 -7.826657903 49.75211393
v 105.615585 -7.826657903 60.78172042
v 115.615585 -7.826657903 72.91798719
v 125.615585 -7.826657903 86.15794414
v 135.615585 -7.826657903 100.4833098
v -139.384415 0.8335961353 105.7144098
v -129.384415 0.8335961353 91.08366054
v -119.384415 0.8335961353 77.56048722
v -109.384415 0.8335961353 65.11859145
v -99.384415 0.8335961353 53.76554661
v -89.384415 0.8335961353 43.48735968
v -79.384415 0.8335961353 34.31053502
v -69.384415 0.8335961353 26.22625783
v -59.384415 0.8335961353 19.2242695
v -49.384415 0.8335961353 13.29179128
v -39.384415 0.8335961353 8.469489504
v -29.384415 0.8335961353 4.73384754
v -19.384415 0.8335961353 2.089248066
v -9.384415 0.8335961353 0.5233888469
v 0.615585 0.8335961353 -0.001783703266
v 10.615585 0.8335961353 0.6469724467
v 20.615585 0.8335961353 2.358892141
v 30.615585 0.8335961353 5.182457091
v 40.615585 0.8335961353 9.105824457
v 50.615585 0.8335961353 14.13634476
v 60.615585 0.8335961353 20.26876
v 70.615585 0.8335961353 27.48205007
v 80.615585 0.8335961353 35.82723074
v 90.615585 0.8335961353 45.25278639
v 100.615585 0.8335961353 55.79767683
v 110.615585 0.8335961353 67.43997658
v 120.615585 0.8335961353 80.18204113
v 130.615585 0.8335961353 94.03265831
v 140.615585 0.8335961353 108.9925985
v -134.384415 9.493850173 97.95601821
v -124.384415 9.493850173 83.87678919
v -114.384415 9.493850173 70.88337103
v -104.384415 9.493850173 58.98785446
v -94.384415 9.493850173 48.19276062
v -84.384415 9.493850173 38.48421782
v -74.384415 9.493850173 29.82152632
v -64.384415 9.493850173 22.29717182
v -54.384415 9.493850173 15.83950108
v -44.384415 9.493850173 10.44719121
v -34.384415 9.493850173 6.16485773
v -24.384415 9.493850173 2.968227312
v -14.384415 9.493850173 0.853427306
v -4.384415 9.493850173 -0.1979743109
v 5.615585 9.493850173 -0.1177933862
v 15.615585 9.493850173 1.073557093
v 25.615585 9.493850173 3.301527079
v 35.615585 9.493850173 6.620004698
v 45.615585 9.493850173 11.03341773
v 55.615585 9.493850173 16.54236496
v 65.615585 9.493850173 23.13260521
v 75.615585 9.493850173 30.84985716
v 85.615585 9.493850173 39.65399119
v 95.615585 9.493850173 49.57688462
v 105.615585 9.493850173 60.59591311
v 115.615585 9.493850173 72.71478176
v 125.615585 9.493850173 85.9361754
v 135.615585 9.493850173 100.2489775
v -139.384415 18.15410421 104.6124732
v -129.384415 18.15410421 89.97584859
v -119.384415 18.15410421 76.45547216
v -109.384415 18.15410421 64.03570712
v -99.384415 18.15410421 52.68026395
v -89.384415 18.15410421 42.39247605
v -79.384415 18.15410421 33.24129078
v -69.384415 18.15410421 25.12981717
v -59.384415 18.15410421 18.14971899
v -49.384415 18.15410421 12.23027345
v -39.384415 18.15410421 7.392280908
v -29.384415 18.15410421 3.657400783
v -19.384415 18.15410421 1.001768748
v -9.384415 18.15410421 -0.609158649
v 0.615585 18.15410421 -1.147513641
v 10.615585 18.15410421 -0.4792492566
v 20.615585 18.15410421 1.266902161
v 30.615585 18.15410421 4.058364136
v 40.615585 18.15410421 7.909946871
v 50.615585 18.15410421 12.84823122
v 60.615585 18.15410421 18.85366128
v 70.615585 18.15410421 25.9666817
v 80.615585 18.15410421 34.17147621
v 90.615585 18.15410421 43.47729418
v 100.615585 18.15410421 53.86269625
v 110.615585 18.15410421 65.37060011
v 120.615585 18.15410421 77.97101057
v 130.615585 18.15410421 91.67943374
v 140.615585 18.15410421 106.4720748
v -134.384415 26.81435825 95.86537003
v -124.384415 26.81435825 81.82054575
v -114.384415 26.81435825 68.84327667
v -104.384415 26.81435825 56.94054494
v -94.384415 26.81435825 46.13733686
v -84.384415 26.81435825 36.38965296
v -74.384415 26.81435825 27.77524896
v -64.384415 26.81435825 20.20363435
v -54.384415 26.81435825 13.76413069
v -44.384415 26.81435825 8.395043468
v -34.384415 26.81435825 4.113244666
v -24.384415 26.81435825 0.8892064425
v -14.384415 26.81435825 -1.226744185
v -4.384415 26.81435825 -2.321656777
v 5.615585 26.81435825 -2.239743257
v 15.615585 26.81435825 -1.02668089
v 25.615585 26.81435825 1.21428201
v 35.615585 26.81435825 4.56499951
v 45.615585 26.81435825 8.957127783
v 55.615585 26.81435825 14.43064387
v 65.615585 26.81435825 21.01821894
v 75.615585 26.81435825 28.66448771
v 85.615585 26.81435825 37.38588814
v 95.615585 26.81435825 47.18337579
v 105.615585 26.81435825 58.08201303
v 115.615585 26.81435825 70.08848953
v 125.615585 26.81435825 83.18124807
v 135.615585 26.81435825 97.38104242
v -139.384415 35.47461229 101.5417873
v -129.384415 35.47461229 86.95639452
v -119.384415 35.47461229 73.41456774
v -109.384415 35.47461229 60.97961376
v -99.384415 35.47461229 49.61553183
v -89.384415 35.47461229 39.3619674
v -79.384415 35.47461229 30.16724314
v -69.384415 35.47461229 22.09400337
v -59.384415 35.47461229 15.07356249
v -49.384415 35.47461229 9.147372955
v -39.384415 35.47461229 4.313486732
v -29.384415 35.47461229 0.5858836982
v -19.384415 35.47461229 -2.08657307
v -9.384415 35.47461229 -3.694685173
v 0.615585 35.47461229 -4.21320653
v 10.615585 35.47461229 -3.557117505
v 20.615585 35.47461229 -1.829292607
v 30.615585 35.47461229 0.9938164089
v 40.615585 35.47461229 4.867860731
v 50.615585 35.47461229 9.820408898
v 60.615585 35.47461229 15.83949633
v 70.615585 35.47461229 22.94575726
v 80.615585 35.47461229 31.14488665
v 90.615585 35.47461229 40.41372609
v 100.615585 35.47461229 50.76130844
v 110.615585 35.47461229 62.18607815
v 120.615585 35.47461229 74.69743844
v 130.615585 35.47461229 88.29404272
v 140.615585 35.47461229 102.9998918
v -134.384415 44.13486632 91.86305658
v -124.384415 44.13486632 77.7687186
v -114.384415 44.13486632 64.79623402
v -104.384415 44.13486632 52.87897409
v -94.384415 44.13486632 42.08476715
v -84.384415 44.13486632 32.36544303
v -74.384415 44.13486632 23.71610996
v -64.384415 44.13486632 16.17072794
v -54.384415 44.13486632 9.721662462
v -44.384415 44.13486632 4.343607122
v -34.384415 44.13486632 0.04468334845
v -24.384415 44.13486632 -3.169955701
v -14.384415 44.13486632 -5.307902699
v -4.384415 44.13486632 -6.375020242
v 5.615585 44.13486632 -6.312083388
v 15.615585 44.13486632 -5.097952203
v 25.615585 44.13486632 -2.831631628
v 35.615585 44.13486632 0.4985131227
v 45.615585 44.13486632 4.936020671
v 55.615585 44.13486632 10.44177906
v 65.615585 44.13486632 17.00415075
v 75.615585 44.13486632 24.65854943
v 85.615585 44.13486632 33.36754658
v 95.615585 44.13486632 43.22097542
v 105.615585 44.13486632 54.11625832
v 115.615585 44.13486632 66.09688926
v 125.615585 44.13486632 79.13859555
v 135.615585 44.13486632 93.26739072
v -139.384415 52.79512036 96.54423842
v -129.384415 52.79512036 81.90897837
v -119.384415 52.79512036 68.39012044
v -109.384415 52.79512036 55.9361274
v -99.384415 52.79512036 44.58375434
v -89.384415 52.79512036 34.32722469
v -79.384415 52.79512036 25.13752399
v -69.384415 52.79512036 17.05462024
v -59.384415 52.79512036 10.03561848
v -49.384415 52.79512036 4.121483355
v -39.384415 52.79512036 -0.7091221945
v -29.384415 52.79512036 -4.465721538
v -19.384415 52.79512036 -7.130782859
v -9.384415 52.79512036 -8.748057097
v 0.615585 52.79512036 -9.256415905
v 10.615585 52.79512036 -8.612579125
v 20.615585 52.79512036 -6.864889347
v 30.615585 52.79512036 -4.067820968
v 40.615585 52.79512036 -0.1703974406
v 50.615585 52.79512036 4.805695689
v 60.615585 52.79512036 10.85484969
v 70.615585 52.79512036 17.98148818
v 80.615585 52.79512036 26.15927598
v 90.615585 52.79512036 35.421897
v 100.615585 52.79512036 45.77983989
v 110.615585 52.79512036 57.22900219
v 120.615585 52.79512036 69.76902405
v 130.615585 52.79512036 83.36270711
v -134.384415 61.4553744 85.84004153
v -124.384415 61.4553744 71.76806508
v -114.384415 61.4553744 58.77527184
v -104.384415 61.4553744 46.87228095
v -94.384415 61.4553744 36.0584323
v -84.384415 61.4553744 26.34374387
v -74.384415 61.4553744 17.70149114
v -64.384415 61.4553744 10.14560271
v -54.384415 61.4553744 3.689528402
v -44.384415 61.4553744 -1.700266232
v -34.384415 61.4553744 -5.987578819
v -24.384415 61.4553744 -9.207683689
v -14.384415 61.4553744 -11.33270206
v -4.384415 61.4553744 -12.40259532
v 5.615585 61.4553744 -12.33381973
v 15.615585 61.4553744 -11.12653256
v 25.615585 61.4553744 -8.870090175
v 35.615585 61.4553744 -5.520713869
v 45.615585 61.4553744 -1.089069643
v 55.615585 61.4553744 4.409567724
v 65.615585 61.4553744 11.01871104
v 75.615585 61.4553744 18.71631802
v 85.615585 61.4553744 27.44634943
v 95.615585 61.4553744 37.26627142
v 105.615585 61.4553744 48.14523644
v 115.615585 61.4553744 60.1161083
v 125.615585 61.4553744 73.19508199
v 135.615585 61.4553744 87.34839636
v -129.384415 70.11562844 74.92861488
v -119.384415 70.11562844 61.38175981
v -109.384415 70.11562844 48.9404861
v -99.384415 70.11562844 37.57690117
v -89.384415 70.11562844 27.32190219
v -79.384415 70.11562844 18.12164536
v -69.384415 70.11562844 10.04635566
v -59.384415 70.11562844 3.041939687
v -49.384415 70.11562844 -2.875726765
v -39.384415 70.11562844 -7.740692075
v -29.384415 70.11562844 -11.47246901
v -19.384415 70.11562844 -14.14863549
v -9.384415 70.11562844 -15.76089436
v 0.615585 70.11562844 -16.25729624
v 10.615585 70.11562844 -15.61295746
v 20.615585 70.11562844 -13.87240941
v 30.615585 70.11562844 -11.06559381
v 40.615585 70.11562844 -7.198531275
v 50.615585 70.11562844 -2.22580178
v 60.615585 70.11562844 3.833075766
v 70.615585 70.11562844 10.96842051
v 80.615585 70.11562844 19.21334952
v 90.615585 70.11562844 28.51518813
v 100.615585 70.11562844 38.88705314
v 110.615585 70.11562844 50.31222975
v 120.615585 70.11562844 62.80956137
v 130.615585 70.11562844 76.40307886
v -134.384415 78.77588248 77.86091372
v -124.384415 78.77588248 63.78088269
v -114.384415 78.77588248 50.78765964
v -104.384415 78.77588248 38.8793916
v -94.384415 78.77588248 28.07593649
v -84.384415 78.77588248 18.33721829
v -74.384415 78.77588248 9.711328354
v -64.384415 78.77588248 2.150531628
v -54.384415 78.77588248 -4.295396012
v -44.384415 78.77588248 -9.684576358
v -34.384415 78.77588248 -13.9966275
v -24.384415 78.77588248 -17.20552567
v -14.384415 78.77588248 -19.32324121
v -4.384415 78.77588248 -20.3871419
v 5.615585 78.77588248 -20.316708
v 15.615585 78.77588248 -19.13164358
v 25.615585 78.77588248 -16.86698234
v 35.615585 78.77588248 -13.5188769
v 45.615585 78.77588248 -9.083333492
v 55.615585 78.77588248 -3.559058306
v 65.615585 78.77588248 3.016604251
v 75.615585 78.77588248 10.70344308
v 85.615585 78.77588248 19.48487628
v 95.615585 78.77588248 29.34182448
v 105.615585 78.77588248 40.27835532
v 115.615585 78.77588248 52.26106097
v 125.615585 78.77588248 65.29962993
v 135.615585 78.77588248 79.41002534
v -129.384415 87.43613651 65.94625964
v -119.384415 87.43613651 52.41501223
v -109.384415 87.43613651 39.96348303
v -99.384415 87.43613651 28.61137214
v -89.384415 87.43613651 18.32763134
v -79.384415 87.43613651 9.147620152
v -69.384415 87.43613651 1.046280077
v -59.384415 87.43613651 -5.960783971
v -49.384415 87.43613651 -11.86955994
v -39.384415 87.43613651 -16.72335723
v -29.384415 87.43613651 -20.46858076
v -19.384415 87.43613651 -23.15186779
v -9.384415 87.43613651 -24.70963068
v 0.615585 87.43613651 -25.21257891
v 10.615585 87.43613651 -24.57514067
v 20.615585 87.43613651 -22.86763606
v 30.615585 87.43613651 -20.07591273
v 40.615585 87.43613651 -16.18698933
v 50.615585 87.43613651 -11.20377615
v 60.615585 87.43613651 -5.160485802
v 70.615585 87.43613651 2.000056032
v 80.615585 87.43613651 10.21871648
v 90.615585 87.43613651 19.53748974
v 100.615585 87.43613651 29.94178637
v 110.615585 87.43613651 41.43565045
v 120.615585 87.43613651 53.97737188
v 130.615585 87.43613651 67.56336083
v -124.384415 96.09639055 53.81255066
v -114.384415 96.09639055 40.82419741
v -104.384415 96.09639055 28.92406567
v -94.384415 96.09639055 18.09294808
v -84.384415 96.09639055 8.379649584
v -74.384415 96.09639055 -0.2678347219
v -64.384415 96.09639055 -7.821891698
v -54.384415 96.09639055 -14.28590643
v -44.384415 96.09639055 -19.66068408
v -34.384415 96.09639055 -23.96562105
v -24.384415 96.09639055 -27.16817508
v -14.384415 96.09639055 -29.31036194
v -4.384415 96.09639055 -30.31527223
v 5.615585 96.09639055 -30.24459592
v 15.615585 96.09639055 -29.11375972
v 25.615585 96.09639055 -26.83605991
v 35.615585 96.09639055 -23.47878673
v 45.615585 96.09639055 -19.05803421
v 55.615585 96.09639055 -13.53285558
v 65.615585 96.09639055 -6.945469638
v 75.615585 96.09639055 0.7389417921
v 85.615585 96.09639055 9.516711875
v 95.615585 96.09639055 19.37453593
v 105.615585 96.09639055 30.31293091
v 115.615585 96.09639055 42.35381345
v 125.615585 96.09639055 55.45078103
v -129.384415 104.7566446 54.97764365
v -119.384415 104.7566446 41.4515422
v -109.384415 104.7566446 29.0075043
v -99.384415 104.7566446 17.64364393
v -89.384415 104.7566446 7.392274274
v -79.384415 104.7566446 -1.812351671
v -69.384415 104.7566446 -9.911660741
v -59.384415 104.7566446 -16.91621214
v -49.384415 104.7566446 -22.81959641
v -39.384415 104.7566446 -27.67808016
v -29.384415 104.7566446 -31.43184408
v -19.384415 104.7566446 -34.1004016
v -9.384415 104.7566446 -35.67927184
v 0.615585 104.7566446 -36.14986863
v 10.615585 104.7566446 -35.55860324
v 20.615585 104.7566446 -33.82270782
v 30.615585 104.7566446 -31.01938281
v 40.615585 104.7566446 -27.14083321
v 50.615585 104.7566446 -22.15607268
v 60.615585 104.7566446 -16.1106177
v 70.615585 104.7566446 -8.959389303
v 80.615585 104.7566446 -0.7260356127
v 90.615585 104.7566446 8.589996359
v 100.615585 104.7566446 18.98942341
v 110.615585 104.7566446 30.48166166
v 120.615585 104.7566446 43.06365623
v -124.384415 113.4168986 41.87331847
v -114.384415 113.4168986 28.87955464
v -104.384415 113.4168986 16.98376187
v -94.384415 113.4168986 6.158183923
v -84.384415 113.4168986 -3.563853009
v -74.384415 113.4168986 -12.21730359
v -64.384415 113.4168986 -19.76840804
v -54.384415 113.4168986 -26.22557805
v -44.384415 113.4168986 -31.60623865
v -34.384415 113.4168986 -35.89043793
v -24.384415 113.4168986 -39.13621967
v -14.384415 113.4168986 -41.24419273
v -4.384415 113.4168986 -42.28231708
v 5.615585 113.4168986 -42.20662875
v 15.615585 113.4168986 -41.04007592
v 25.615585 113.4168986 -38.77338422
v 35.615585 113.4168986 -35.43617871
v 45.615585 113.4168986 -31.00298414
v 55.615585 113.4168986 -25.47280912
v 65.615585 113.4168986 -18.89260935
v 75.615585 113.4168986 -11.21151757
v 85.615585 113.4168986 -2.427931677
v 95.615585 113.4168986 7.425974017
v 105.615585 113.4168986 18.38602816
v 115.615585 113.4168986 30.42344117
v 125.615585 113.4168986 43.55753409
v -119.384415 122.0771527 28.53365616
v -109.384415 122.0771527 16.0934768
v -99.384415 122.0771527 4.712189926
v -89.384415 122.0771527 -5.548414231
v -79.384415 122.0771527 -14.73517638
v -69.384415 122.0771527 -22.83855296
v -59.384415 122.0771527 -29.8475077
v -49.384415 122.0771527 -35.75800737
v -39.384415 122.0771527 -40.60143858
v -29.384415 122.0771527 -44.35561609
v -19.384415 122.0771527 -47.03456787
v -9.384415 122.0771527 -48.59515973
v 0.615585 122.0771527 -49.08764254
v 10.615585 122.0771527 -48.46068296
v 20.615585 122.0771527 -46.75727439
v 30.615585 122.0771527 -43.96030507
v 40.615585 122.0771527 -40.04807238
v 50.615585 122.0771527 -35.09035747
v 60.615585 122.0771527 -29.05225935
v 70.615585 122.0771527 -21.89429601
v 80.615585 122.0771527 -13.66185166
v 90.615585 122.0771527 -4.341910108
v 100.615585 122.0771527 6.061957831
v 110.615585 122.0771527 17.54876185
v 120.615585 122.0771527 30.12525338
v -114.384415 130.7374067 14.97370903
v -104.384415 130.7374067 3.067095912
v -94.384415 130.7374067 -7.748493025
v -84.384415 130.7374067 -17.47627008
v -74.384415 130.7374067 -26.11878237
v -64.384415 130.7374067 -33.68672945
v -54.384415 130.7374067 -40.15851875
v -44.384415 130.7374067 -45.53305298
v -34.384415 130.7374067 -49.82009568
v -24.384415 130.7374067 -53.02155743
v -14.384415 130.7374067 -55.14476254
v -4.384415 130.7374067 -56.1521886
v 5.615585 130.7374067 -56.08837813
v 15.615585 130.7374067 -54.95951511
v 25.615585 130.7374067 -52.69098672
v 35.615585 130.7374067 -49.34839533
v 45.615585 130.7374067 -44.9270831
v 55.615585 130.7374067 -39.4082399
v 65.615585 130.7374067 -32.80484471
v 75.615585 130.7374067 -25.11077924
v 85.615585 130.7374067 -16.33286775
v 95.615585 130.7374067 -6.480976717
v 105.615585 130.7374067 4.47392176
v 115.615585 130.7374067 16.51489217
v -109.384415 139.3976607 1.187937035
v -99.384415 139.3976607 -10.18280403
v -89.384415 139.3976607 -20.45692335
v -79.384415 139.3976607 -29.63016001
v -69.384415 139.3976607 -37.7405696
v -59.384415 139.3976607 -44.73973098
v -49.384415 139.3976607 -50.67204019
v -39.384415 139.3976607 -55.51824604
v -29.384415 139.3976607 -59.26581462
v -19.384415 139.3976607 -61.91698335
v -9.384415 139.3976607 -63.49496882
v 0.615585 139.3976607 -63.97712867
v 10.615585 139.3976607 -63.36171869
v 20.615585 139.3976607 -61.63491805
v 30.615585 139.3976607 -58.85782059
v 40.615585 139.3976607 -54.97516256
v 50.615585 139.3976607 -49.99755325
v 60.615585 139.3976607 -43.95359629
v 70.615585 139.3976607 -36.78804722
v 80.615585 139.3976607 -28.55312655
v 90.615585 139.3976607 -19.25239891
v 100.615585 139.3976607 -8.838364084
v 110.615585 139.3976607 2.653181606
v -104.384415 148.0579148 -12.82147201
v -94.384415 148.0579148 -23.64675587
v -84.384415 148.0579148 -33.3713901
v -74.384415 148.0579148 -42.00999878
v -64.384415 148.0579148 -49.57940347
v -54.384415 148.0579148 -56.03541235
v -44.384415 148.0579148 -61.42431467
v -34.384415 148.0579148 -65.72506255
v -24.384415 148.0579148 -68.91609225
v -14.384415 148.0579148 -71.01786681
v -4.384415 148.0579148 -72.0513877
v 5.615585 148.0579148 -71.98781103
v 15.615585 148.0579148 -70.81873066
v 25.615585 148.0579148 -68.57726395
v 35.615585 148.0579148 -65.2339182
v 45.615585 148.0579148 -60.81990508
v 55.615585 148.0579148 -55.30836196
v 65.615585 148.0579148 -48.69873843
v 75.615585 148.0579148 -41.00260459
v 85.615585 148.0579148 -32.23715258
v 95.615585 148.0579148 -22.36076691
v 105.615585 148.0579148 -11.42441694
v -109.384415 156.7181688 -15.6922173
v -99.384415 156.7181688 -27.05175563
v -89.384415 156.7181688 -37.32809088
v -79.384415 156.7181688 -46.5124027
v -69.384415 156.7181688 -54.61179329
v -59.384415 156.7181688 -61.61689541
v -49.384415 156.7181688 -67.53883857
v -39.384415 156.7181688 -72.38513808
v -29.384415 156.7181688 -76.13052419
v -19.384415 156.7181688 -78.79613638
v -9.384415 156.7181688 -80.36676672
v 0.615585 156.7181688 -80.8305592
v 10.615585 156.7181688 -80.21950621
v 20.615585 156.7181688 -78.51360855
v 30.615585 156.7181688 -75.74856966
v 40.615585 156.7181688 -71.8352798
v 50.615585 156.7181688 -66.88340152
v 60.615585 156.7181688 -60.81231654
v 70.615585 156.7181688 -53.67704466
v 80.615585 156.7181688 -45.44486805
v 90.615585 156.7181688 -36.11278431
v 100.615585 156.7181688 -25.71830879
v -104.384415 165.3784229 -30.69333872
v -94.384415 165.3784229 -41.49659778
v -84.384415 165.3784229 -51.232557
v -74.384415 165.3784229 -59.87889796
v -64.384415 165.3784229 -67.43037493
v -54.384415 165.3784229 -73.89396203
v -44.384415 165.3784229 -79.28275801
v -34.384415 165.3784229 -83.56781566
v -24.384415 165.3784229 -86.7610172
v -14.384415 165.3784229 -88.88002496
v -4.384415 165.3784229 -89.91478677
v 5.615585 165.3784229 -89.84336547
v 15.615585 165.3784229 -88.67215095
v 25.615585 165.3784229 -86.43708629
v 35.615585 165.3784229 -83.10643833
v 45.615585 165.3784229 -78.66288812
v 55.615585 165.3784229 -73.15535791
v 65.615585 165.3784229 -66.56728883
v 75.615585 165.3784229 -58.87100431
v 85.615585 165.3784229 -50.10253325
v 95.615585 165.3784229 -40.22894453
v -99.384415 174.0386769 -45.9007328
v -89.384415 174.0386769 -56.16840124
v -79.384415 174.0386769 -65.36558191
v -69.384415 174.0386769 -73.45973825
v -59.384415 174.0386769 -80.47251088
v -49.384415 174.0386769 -86.40588921
v -39.384415 174.0386769 -91.22675979
v -29.384415 174.0386769 -94.96831473
v -19.384415 174.0386769 -97.62337131
v -9.384415 174.0386769 -99.19264781
v 0.615585 174.0386769 -99.66942604
v 10.615585 174.0386769 -99.07427535
v 20.615585 174.0386769 -97.37011086
v 30.615585 174.0386769 -94.58303761
v 40.615585 174.0386769 -90.69562755
v 50.615585 174.0386769 -85.72120061
v 60.615585 174.0386769 -79.66176376
v 70.615585 174.0386769 -72.51652518
v 80.615585 174.0386769 -64.28595904
v 90.615585 174.0386769 -54.96959465
v -94.384415 182.6989309 -61.34746134
v -84.384415 182.6989309 -71.0676255
v -74.384415 182.6989309 -79.7089045
v -64.384415 182.6989309 -87.26367214
v -54.384415 182.6989309 -93.71975218
v -44.384415 182.6989309 -99.10559307
v -34.384415 182.6989309 -103.3942114
v -24.384415 182.6989309 -106.5973569
v -14.384415 182.6989309 -108.7045011
v -4.384415 182.6989309 -109.7403271
v 5.615585 182.6989309 -109.6621498
v 15.615585 182.6989309 -108.4998347
v 25.615585 182.6989309 -106.2794256
v 35.615585 182.6989309 -102.9429707
v 45.615585 182.6989309 -98.51801801
v 55.615585 182.6989309 -93.00001749
v 65.615585 182.6989309 -86.39628733
v 75.615585 182.6989309 -78.71144183
v 85.615585 182.6989309 -69.92703198
v -79.384415 191.359185 -86.18998178
v -69.384415 191.359185 -94.27385084
v -59.384415 191.359185 -101.2858564
v -49.384415 191.359185 -107.1954488
v -39.384415 191.359185 -112.0371246
v -29.384415 191.359185 -115.7908803
v -19.384415 191.359185 -118.4599942
v -9.384415 191.359185 -120.005347
v 0.615585 191.359185 -120.4938538
v 10.615585 191.359185 -119.8760863
v 20.615585 191.359185 -118.1724542
v 30.615585 191.359185 -115.4004671
v 40.615585 191.359185 -111.5212192
v 50.615585 191.359185 -106.5388372
v 60.615585 191.359185 -100.4847449
v 70.615585 191.359185 -93.33044654
v 80.615585 191.359185 -85.10823061
v -74.384415 200.019439 -101.5193864
v -64.384415 200.019439 -109.0758225
v -54.384415 200.019439 -115.5319509
v -44.384415 200.019439 -120.8957094
v -34.384415 200.019439 -125.2005155
v -24.384415 200.019439 -128.4136283
v -14.384415 200.019439 -130.4987535
v -4.384415 200.019439 -131.5364329
v 5.615585 200.019439 -131.4520369
v 15.615585 200.019439 -130.309974
v 25.615585 200.019439 -128.057422
v 35.615585 200.019439 -124.7485843
v 45.615585 200.019439 -120.309919
v 55.615585 200.019439 -114.7908351
v 65.615585 200.019439 -108.1853362
v 75.615585 200.019439 -100.5142774
v -69.384415 208.679693 -117.0660251
v -59.384415 208.679693 -124.0888349
v -49.384415 208.679693 -129.9988571
v -39.384415 208.679693 -134.8233189
v -29.384415 208.679693 -138.5882531
v -19.384415 208.679693 -141.2186301
v -9.384415 208.679693 -142.8017941
v 0.615585 208.679693 -143.2886018
v 10.615585 208.679693 -142.6552067
v 20.615585 208.679693 -140.9652269
v 30.615585 208.679693 -138.1664638
v 40.615585 208.679693 -134.3073779
v 50.615585 208.679693 -129.3213683
v 60.615585 208.679693 -123.2647243
v 70.615585 208.679693 -116.1403863
v -54.384415 217.3399471 -139.312816
v -44.384415 217.3399471 -144.6790215
v -34.384415 217.3399471 -148.9878015
v -24.384415 217.3399471 -152.160088
v -14.384415 217.3399471 -154.2845999
v -4.384415 217.3399471 -155.3274398
v 5.615585 217.3399471 -155.2388134
v 15.615585 217.3399471 -154.0742505
v 25.615585 217.3399471 -151.8422672
v 35.615585 217.3399471 -148.5004322
v 45.615585 217.3399471 -144.0815263
v 55.615585 217.3399471 -138.5649184
v -49.384415 226.0002011 -154.7628799
v -39.384415 226.0002011 -159.6024309
v -29.384415 226.0002011 -163.3292506
v -19.384415 226.0002011 -165.9945008
v -9.384415 226.0002011 -167.5704026
v 0.615585 226.0002011 -168.0350747
v 10.615585 226.0002011 -167.4142386
v 20.615585 226.0002011 -165.7150176
v 30.615585 226.0002011 -162.9389456
v 40.615585 226.0002011 -159.0652071
v 50.615585 226.0002011 -154.0946053
v -34.384415 234.6604552 -174.7182294
v -24.384415 234.6604552 -177.9387588
v -14.384415 234.6604552 -180.0547626
v -4.384415 234.6604552 -181.0630354
v 5.615585 234.6604552 -180.9883029
v 15.615585 234.6604552 -179.8305254
v 25.615585 234.6604552 -177.5892851
v 35.615585 234.6604552 -174.2502826
f 811 188 189
f 186 187 868
f 187 188 868
f 1 811 189
f 811 1 783
f 571 544 572
f 143 1448 142
f 1 754 783
f 755 754 726
f 754 755 783
f 697 698 726
f 755 727 756
f 756 727 728
f 727 755 726
f 698 727 726
f 670 642 643
f 619 647 618
f 321 300 322
f 53 54 210
f 200 53 210
f 48 191 47
f 671 670 643
f 617 590 618
f 617 589 590
f 89 90 696
f 90 725 696
f 725 90 91
f 530 529 504
f 529 530 556
f 82 530 504
f 530 82 83
f 92 725 91
f 92 93 782
f 753 92 782
f 92 753 725
f 812 811 783
f 586 613 8
f 754 3 726
f 3 697 726
f 641 613 642
f 1447 143 144
f 1447 1448 143
f 648 647 619
f 620 648 619
f 592 620 619
f 791 792 820
f 791 790 762
f 202 41 42
f 41 202 201
f 36 226 35
f 44 45 194
f 193 202 42
f 193 44 194
f 215 216 230
f 295 276 296
f 277 276 258
f 276 277 296
f 382 359 360
f 359 338 360
f 458 432 433
f 52 200 51
f 200 52 53
f 209 200 210
f 200 199 51
f 199 209 208
f 209 199 200
f 329 307 308
f 512 539 538
f 512 513 539
f 471 470 445
f 470 471 497
f 571 543 544
f 15 453 14
f 453 15 428
f 615 587 588
f 615 644 643
f 644 671 643
f 727 699 728
f 699 700 728
f 699 727 698
f 670 699 698
f 671 699 670
f 699 671 700
f 484 458 485
f 563 536 564
f 536 537 564
f 589 562 590
f 562 563 590
f 647 646 618
f 645 646 673
f 617 646 645
f 646 617 618
f 435 410 411
f 539 566 538
f 567 566 539
f 566 567 594
f 668 89 696
f 668 640 89
f 695 668 696
f 640 88 89
f 88 640 87
f 640 612 87
f 555 529 556
f 478 82 504
f 477 478 504
f 81 478 80
f 478 81 82
f 84 530 83
f 529 503 504
f 503 477 504
f 403 75 76
f 77 403 76
f 100 101 1009
f 953 98 99
f 896 96 97
f 1008 1035 1007
f 467 493 466
f 493 467 494
f 636 635 608
f 635 607 608
f 606 633 605
f 546 547 574
f 602 601 574
f 597 624 596
f 857 828 829
f 622 621 594
f 567 595 594
f 595 622 594
f 94 810 782
f 93 94 782
f 753 781 752
f 810 781 782
f 781 753 782
f 724 753 752
f 725 724 696
f 723 724 752
f 753 724 725
f 695 724 723
f 724 695 696
f 1035 1034 1007
f 1034 1006 1007
f 973 1002 1001
f 973 944 945
f 975 947 976
f 947 975 946
f 896 924 895
f 924 896 97
f 98 924 97
f 924 98 953
f 1006 978 1007
f 1354 1373 1353
f 812 840 811
f 188 840 868
f 811 840 188
f 897 186 868
f 897 925 186
f 843 871 842
f 2 754 1
f 2 3 754
f 3 4 697
f 6 641 5
f 641 6 613
f 669 670 698
f 697 669 698
f 670 669 642
f 669 641 642
f 641 669 5
f 669 4 5
f 4 669 697
f 1447 1438 1448
f 591 619 618
f 590 591 618
f 563 591 590
f 591 563 564
f 592 591 564
f 591 592 619
f 733 734 762
f 846 817 818
f 761 733 762
f 790 761 762
f 848 819 820
f 819 791 820
f 819 790 791
f 790 819 818
f 700 729 728
f 701 729 700
f 729 701 730
f 1108 1134 1107
f 1108 1081 1109
f 39 40 201
f 40 41 201
f 300 280 281
f 212 226 36
f 43 193 42
f 193 43 44
f 191 190 47
f 190 46 47
f 46 190 45
f 229 244 228
f 229 215 230
f 295 275 276
f 343 320 321
f 383 382 360
f 17 404 428
f 337 338 359
f 337 21 22
f 337 359 20
f 21 337 20
f 16 17 428
f 15 16 428
f 295 317 316
f 317 295 296
f 294 295 316
f 294 275 295
f 275 294 27
f 216 231 230
f 284 283 265
f 283 264 265
f 224 211 56
f 211 55 56
f 54 211 210
f 55 211 54
f 199 50 51
f 203 193 194
f 215 203 216
f 193 203 202
f 203 215 202
f 203 204 216
f 204 203 194
f 196 190 191
f 48 192 191
f 266 284 265
f 57 224 56
f 326 304 305
f 372 373 395
f 394 372 395
f 372 394 371
f 238 224 239
f 289 270 271
f 270 253 271
f 537 511 538
f 511 512 538
f 376 354 355
f 471 446 472
f 446 471 445
f 439 465 464
f 543 517 544
f 513 540 539
f 540 567 539
f 418 419 443
f 419 418 395
f 394 418 417
f 418 394 395
f 330 329 308
f 354 332 355
f 290 289 271
f 310 290 291
f 379 378 357
f 378 356 357
f 356 334 357
f 334 335 357
f 498 471 472
f 471 498 497
f 12 13 479
f 453 13 14
f 13 453 479
f 453 480 479
f 12 505 11
f 505 12 479
f 480 505 479
f 561 589 588
f 562 561 534
f 561 562 589
f 614 615 643
f 642 614 643
f 614 613 586
f 613 614 642
f 614 587 615
f 587 614 586
f 616 615 588
f 589 616 588
f 616 617 645
f 617 616 589
f 616 644 615
f 644 616 645
f 672 645 673
f 701 672 673
f 671 672 700
f 672 701 700
f 644 672 671
f 672 644 645
f 432 457 431
f 457 456 431
f 457 432 458
f 484 457 458
f 507 508 534
f 535 508 509
f 536 535 509
f 535 536 563
f 508 535 534
f 535 562 534
f 562 535 563
f 436 435 411
f 512 487 513
f 435 434 410
f 362 385 384
f 385 362 363
f 385 408 384
f 432 408 433
f 369 368 347
f 537 565 564
f 565 592 564
f 565 537 538
f 566 565 538
f 87 585 86
f 612 585 87
f 585 85 86
f 553 526 527
f 526 553 552
f 77 427 403
f 427 77 78
f 452 477 451
f 427 452 451
f 452 478 477
f 79 452 78
f 452 427 78
f 478 452 80
f 452 79 80
f 101 1037 1009
f 102 1037 101
f 867 896 895
f 896 867 96
f 1246 112 113
f 111 112 1246
f 111 1222 110
f 1222 111 1246
f 544 545 572
f 441 416 417
f 441 467 466
f 632 660 631
f 660 632 661
f 632 633 661
f 633 632 605
f 634 635 663
f 607 634 606
f 634 607 635
f 634 633 606
f 635 664 663
f 664 635 636
f 609 581 582
f 609 636 608
f 581 609 608
f 609 637 636
f 666 637 638
f 597 625 624
f 682 683 711
f 883 855 884
f 912 883 884
f 855 826 827
f 827 826 798
f 828 856 827
f 856 828 857
f 856 855 827
f 855 856 884
f 828 800 829
f 650 621 622
f 652 623 624
f 624 623 596
f 595 623 622
f 623 595 596
f 769 740 741
f 683 712 711
f 712 683 684
f 740 712 741
f 712 740 711
f 1062 1035 1063
f 1062 1089 1061
f 1062 1034 1035
f 1034 1062 1061
f 1033 1005 1006
f 1005 1033 1032
f 1034 1033 1006
f 1033 1034 1061
f 944 943 915
f 970 971 999
f 1000 1027 999
f 971 1000 999
f 947 948 976
f 952 924 953
f 949 948 920
f 944 916 945
f 916 944 915
f 858 886 857
f 858 857 829
f 781 780 752
f 1415 1400 1416
f 1429 1415 1416
f 1413 1414 1427
f 1414 1413 1398
f 1085 1113 1112
f 1287 1309 1286
f 1346 1325 1326
f 1347 1346 1326
f 1084 1085 1112
f 1027 1055 1054
f 1032 1059 1031
f 1059 1058 1031
f 1042 1070 1069
f 925 185 186
f 1097 1070 1098
f 1070 1097 1069
f 1094 1093 1066
f 792 821 820
f 1045 1018 1046
f 959 960 988
f 841 840 812
f 613 7 8
f 6 7 613
f 154 155 1407
f 1413 1397 1398
f 674 646 647
f 646 674 673
f 706 707 735
f 734 706 735
f 763 791 762
f 791 763 792
f 734 763 762
f 763 734 735
f 934 933 905
f 933 934 962
f 961 933 962
f 817 789 818
f 789 790 818
f 789 761 790
f 761 789 760
f 847 846 818
f 847 819 848
f 819 847 818
f 758 729 730
f 758 787 786
f 784 755 756
f 755 784 783
f 784 812 783
f 785 784 756
f 814 843 842
f 814 785 786
f 1101 1102 1128
f 261 280 279
f 212 227 226
f 37 212 36
f 212 37 38
f 32 241 258
f 31 32 258
f 32 33 241
f 45 195 194
f 190 195 45
f 195 204 194
f 204 195 205
f 196 195 190
f 195 196 205
f 215 214 202
f 202 214 201
f 229 214 215
f 214 229 228
f 28 275 27
f 275 28 29
f 30 257 29
f 275 257 276
f 257 275 29
f 276 257 258
f 257 31 258
f 257 30 31
f 280 299 279
f 299 300 321
f 299 280 300
f 320 299 321
f 386 385 363
f 364 386 363
f 383 406 382
f 404 429 428
f 382 381 359
f 359 381 20
f 337 315 338
f 338 315 316
f 315 294 316
f 25 315 24
f 294 315 25
f 338 339 360
f 339 338 316
f 339 317 340
f 317 339 316
f 294 26 27
f 26 294 25
f 229 245 244
f 245 229 230
f 300 301 322
f 301 300 281
f 205 206 218
f 196 206 205
f 49 192 48
f 207 198 208
f 198 199 208
f 198 50 199
f 198 49 50
f 49 198 192
f 240 59 60
f 240 255 239
f 255 240 256
f 57 225 224
f 225 57 58
f 224 225 239
f 59 225 58
f 225 240 239
f 240 225 59
f 61 240 60
f 61 62 256
f 240 61 256
f 293 66 67
f 293 292 274
f 292 293 312
f 66 293 65
f 293 274 65
f 63 274 256
f 62 63 256
f 470 444 445
f 419 444 443
f 444 469 443
f 469 444 470
f 420 444 419
f 444 420 445
f 396 419 395
f 396 373 374
f 373 396 395
f 396 420 419
f 348 369 347
f 348 370 369
f 394 393 371
f 393 394 417
f 416 393 417
f 393 370 371
f 328 307 329
f 253 254 271
f 255 254 239
f 238 254 253
f 254 238 239
f 223 211 224
f 211 223 210
f 238 223 224
f 484 510 509
f 510 536 509
f 510 484 485
f 536 510 537
f 510 511 537
f 511 510 485
f 353 375 374
f 375 353 354
f 376 375 354
f 420 421 445
f 446 421 422
f 421 446 445
f 492 465 466
f 493 492 466
f 569 597 596
f 373 352 374
f 352 353 374
f 352 330 353
f 330 352 329
f 353 331 354
f 330 331 353
f 332 331 310
f 331 332 354
f 75 380 74
f 380 75 403
f 380 402 379
f 402 380 403
f 332 333 355
f 334 333 312
f 356 333 334
f 333 356 355
f 71 72 336
f 632 604 605
f 604 632 631
f 578 606 605
f 505 531 11
f 531 505 532
f 587 560 588
f 560 561 588
f 508 483 509
f 483 484 509
f 483 457 484
f 457 483 456
f 506 480 481
f 505 506 532
f 506 505 480
f 507 506 481
f 436 437 462
f 487 488 513
f 486 511 485
f 511 486 512
f 486 487 512
f 391 368 369
f 366 345 367
f 365 364 343
f 365 366 388
f 621 593 594
f 593 566 594
f 592 593 620
f 593 621 620
f 593 565 566
f 565 593 592
f 585 557 85
f 530 557 556
f 557 84 85
f 84 557 530
f 555 583 582
f 583 555 556
f 639 612 640
f 668 639 640
f 639 611 612
f 611 639 638
f 554 555 582
f 581 554 582
f 553 554 581
f 554 553 527
f 580 581 608
f 607 580 608
f 553 580 552
f 580 553 581
f 476 502 475
f 477 476 451
f 503 476 477
f 502 476 503
f 450 476 475
f 476 450 451
f 501 474 475
f 501 502 527
f 502 501 475
f 526 501 527
f 498 499 524
f 499 498 472
f 447 446 422
f 446 447 472
f 449 450 475
f 425 449 424
f 474 449 475
f 450 449 425
f 448 449 474
f 449 448 424
f 1035 1036 1063
f 1036 1008 1009
f 1008 1036 1035
f 1037 1036 1009
f 1118 1144 1117
f 1144 1143 1117
f 1091 1119 1118
f 519 493 494
f 545 519 546
f 573 546 574
f 601 573 574
f 545 573 572
f 573 545 546
f 465 440 466
f 416 440 415
f 440 439 415
f 439 440 465
f 441 440 416
f 440 441 466
f 442 418 443
f 418 442 417
f 441 442 467
f 442 441 417
f 665 664 636
f 637 665 636
f 666 665 637
f 599 571 572
f 599 627 626
f 660 659 631
f 659 660 687
f 630 659 658
f 659 630 631
f 740 739 711
f 738 739 767
f 627 655 626
f 682 655 683
f 883 854 855
f 854 826 855
f 653 652 624
f 625 653 624
f 653 680 652
f 680 653 681
f 679 680 708
f 707 679 708
f 680 679 652
f 1091 1090 1063
f 1089 1090 1117
f 1090 1118 1117
f 1090 1091 1118
f 1062 1090 1089
f 1090 1062 1063
f 886 885 857
f 885 856 857
f 856 885 884
f 912 941 940
f 972 943 944
f 972 973 1001
f 973 972 944
f 943 972 971
f 972 1000 971
f 1000 972 1001
f 1005 1004 976
f 1004 1032 1031
f 1004 1005 1032
f 1004 975 976
f 1004 1003 975
f 1003 1004 1031
f 974 973 945
f 946 974 945
f 973 974 1002
f 975 974 946
f 974 1003 1002
f 1003 974 975
f 981 952 953
f 981 100 1009
f 981 953 99
f 100 981 99
f 979 1008 1007
f 978 979 1007
f 921 949 920
f 977 1005 976
f 1005 977 1006
f 977 978 1006
f 948 977 976
f 949 977 948
f 977 949 978
f 633 662 661
f 662 634 663
f 634 662 633
f 690 662 663
f 660 688 687
f 688 660 661
f 918 947 946
f 887 916 915
f 886 887 915
f 887 858 859
f 858 887 886
f 858 830 859
f 830 858 829
f 952 923 924
f 924 923 895
f 894 923 922
f 923 894 895
f 120 121 1354
f 121 122 1354
f 1373 122 123
f 122 1373 1354
f 124 1373 123
f 1352 1332 1353
f 124 1390 1373
f 1390 124 125
f 130 1421 129
f 1420 1421 131
f 1421 130 131
f 1433 132 133
f 1433 1420 131
f 132 1433 131
f 1382 1364 1365
f 1439 1438 1427
f 1438 1439 1448
f 1216 1191 1217
f 1287 1265 1288
f 120 1334 119
f 1334 120 1354
f 1334 118 119
f 1345 1346 1365
f 1364 1345 1365
f 1345 1325 1346
f 1325 1345 1324
f 1367 1368 1385
f 1368 1367 1348
f 1367 1347 1348
f 1215 1216 1240
f 1135 1108 1109
f 1108 1135 1134
f 1135 1136 1162
f 1136 1135 1109
f 1110 1136 1109
f 1136 1110 1137
f 1057 1058 1085
f 1084 1057 1085
f 1086 1113 1085
f 1058 1086 1085
f 1059 1086 1058
f 1039 1012 1040
f 985 957 986
f 985 1012 984
f 1041 1042 1069
f 1041 1014 1042
f 1014 1015 1042
f 1015 988 1016
f 1097 1096 1069
f 1094 1120 1093
f 178 1120 177
f 1120 178 1093
f 1126 1099 1100
f 879 907 878
f 849 848 820
f 877 849 878
f 849 877 848
f 821 849 820
f 938 910 939
f 938 939 967
f 910 938 909
f 1020 1019 992
f 1018 1019 1046
f 991 1019 1018
f 1019 991 992
f 1045 1017 1018
f 870 841 842
f 871 870 842
f 870 871 899
f 898 870 899
f 983 955 984
f 928 929 957
f 957 958 986
f 959 958 930
f 929 958 957
f 958 929 930
f 153 154 1407
f 1408 153 1407
f 153 1408 152
f 1437 1438 1447
f 1394 1395 1410
f 1392 1408 1407
f 1359 1360 1377
f 1376 1359 1377
f 1412 1397 1413
f 172 173 1198
f 173 174 1198
f 170 1247 169
f 171 1247 170
f 732 761 760
f 761 732 733
f 731 732 760
f 732 731 703
f 701 702 730
f 702 701 673
f 702 731 730
f 731 702 703
f 674 702 673
f 702 674 703
f 621 649 620
f 649 650 677
f 649 648 620
f 650 649 621
f 649 676 648
f 676 649 677
f 675 674 647
f 648 675 647
f 674 675 703
f 676 675 648
f 705 676 677
f 705 734 733
f 705 706 734
f 706 705 677
f 929 901 930
f 845 873 844
f 846 845 817
f 845 816 817
f 816 845 844
f 789 788 760
f 788 789 817
f 816 788 817
f 788 816 787
f 729 757 728
f 757 756 728
f 757 785 756
f 785 757 786
f 758 757 729
f 757 758 786
f 787 815 786
f 843 815 844
f 815 816 844
f 816 815 787
f 815 814 786
f 814 815 843
f 841 813 842
f 784 813 812
f 813 841 812
f 813 784 785
f 814 813 785
f 813 814 842
f 998 970 999
f 1081 1053 1054
f 1105 1078 1106
f 1132 1105 1106
f 1101 1074 1102
f 1101 1127 1100
f 1127 1126 1100
f 1127 1101 1128
f 1021 1048 1020
f 1048 1021 1049
f 1076 1048 1049
f 278 260 279
f 260 261 279
f 226 34 35
f 241 34 226
f 33 34 241
f 227 213 228
f 213 227 212
f 213 214 228
f 214 213 201
f 213 212 38
f 213 39 201
f 213 38 39
f 297 277 278
f 277 297 296
f 342 364 363
f 364 342 343
f 342 320 343
f 342 319 320
f 409 434 433
f 408 409 433
f 434 409 410
f 409 408 385
f 386 409 385
f 409 386 410
f 407 432 431
f 408 407 384
f 407 383 384
f 407 408 432
f 407 406 383
f 406 407 431
f 480 454 481
f 454 455 481
f 454 453 428
f 454 480 453
f 454 429 455
f 429 454 428
f 455 430 456
f 430 406 431
f 456 430 431
f 429 430 455
f 18 381 404
f 18 404 17
f 315 23 24
f 23 337 22
f 23 315 337
f 361 362 384
f 361 383 360
f 383 361 384
f 362 361 340
f 361 339 340
f 339 361 360
f 217 204 205
f 217 205 218
f 204 217 216
f 217 231 216
f 217 232 231
f 232 217 218
f 232 247 231
f 264 247 265
f 262 261 244
f 280 262 281
f 262 263 281
f 261 262 280
f 262 245 263
f 245 262 244
f 263 282 281
f 282 263 264
f 283 282 264
f 282 301 281
f 192 197 191
f 197 196 191
f 206 197 207
f 197 206 196
f 198 197 192
f 197 198 207
f 1421 128 129
f 273 255 256
f 274 273 256
f 292 273 274
f 273 292 291
f 274 64 65
f 63 64 274
f 325 304 326
f 325 348 347
f 348 325 326
f 324 325 347
f 328 306 307
f 370 349 371
f 349 348 326
f 348 349 370
f 220 207 208
f 235 236 251
f 286 306 305
f 250 235 251
f 268 250 251
f 288 289 308
f 307 288 308
f 288 270 289
f 396 397 420
f 397 396 374
f 375 397 374
f 397 421 420
f 570 543 571
f 569 570 597
f 595 568 596
f 540 568 567
f 568 595 567
f 568 569 596
f 489 488 462
f 491 492 517
f 465 491 464
f 492 491 465
f 351 328 329
f 372 351 373
f 351 352 373
f 352 351 329
f 309 330 308
f 289 309 308
f 290 309 289
f 309 290 310
f 309 331 330
f 331 309 310
f 401 425 424
f 379 401 378
f 400 401 424
f 401 400 378
f 402 401 379
f 401 402 425
f 426 450 425
f 450 426 451
f 426 427 451
f 427 426 403
f 426 402 403
f 402 426 425
f 335 358 357
f 358 379 357
f 358 335 336
f 358 380 379
f 311 310 291
f 292 311 291
f 311 332 310
f 311 292 312
f 311 333 332
f 333 311 312
f 70 71 336
f 380 73 74
f 358 73 380
f 72 73 336
f 73 358 336
f 496 469 470
f 496 495 469
f 496 470 497
f 495 496 521
f 496 522 521
f 522 496 497
f 498 523 497
f 523 498 524
f 522 523 549
f 523 522 497
f 575 602 574
f 547 575 574
f 604 577 605
f 577 578 605
f 531 10 11
f 558 586 8
f 9 558 8
f 10 558 9
f 558 10 531
f 455 482 481
f 482 507 481
f 482 455 456
f 507 482 508
f 482 483 508
f 483 482 456
f 533 507 534
f 533 560 532
f 561 533 534
f 560 533 561
f 533 506 507
f 506 533 532
f 388 412 411
f 412 436 411
f 412 437 436
f 461 436 462
f 436 461 435
f 461 488 487
f 488 461 462
f 434 459 433
f 459 458 433
f 458 459 485
f 459 486 485
f 392 416 415
f 370 392 369
f 392 393 416
f 393 392 370
f 392 391 369
f 391 392 415
f 346 368 367
f 346 324 347
f 368 346 347
f 345 346 367
f 386 387 410
f 410 387 411
f 387 388 411
f 387 386 364
f 365 387 364
f 387 365 388
f 345 344 322
f 344 321 322
f 344 343 321
f 344 345 366
f 365 344 366
f 344 365 343
f 637 610 638
f 610 611 638
f 610 609 582
f 609 610 637
f 610 583 611
f 583 610 582
f 557 584 556
f 611 584 612
f 584 585 612
f 584 557 585
f 584 583 556
f 583 584 611
f 667 666 638
f 667 668 695
f 667 639 668
f 639 667 638
f 528 502 503
f 555 528 529
f 528 503 529
f 502 528 527
f 554 528 555
f 528 554 527
f 578 579 606
f 579 607 606
f 579 551 552
f 579 578 551
f 579 580 607
f 580 579 552
f 551 525 552
f 525 551 524
f 525 526 552
f 499 525 524
f 473 448 474
f 473 499 472
f 447 473 472
f 473 447 448
f 1064 1091 1063
f 1064 1036 1037
f 1036 1064 1063
f 103 1064 102
f 1064 1037 102
f 839 838 810
f 839 94 95
f 94 839 810
f 838 839 867
f 96 839 95
f 867 839 96
f 780 809 808
f 809 781 810
f 809 780 781
f 838 809 810
f 894 866 895
f 866 867 895
f 866 838 867
f 1119 1092 104
f 1092 1119 1091
f 1064 1092 1091
f 1092 103 104
f 1092 1064 103
f 105 1119 104
f 1119 105 106
f 1145 1144 1118
f 1119 1145 1118
f 1145 1119 106
f 495 520 494
f 547 520 521
f 520 547 546
f 520 495 521
f 519 520 546
f 520 519 494
f 518 545 544
f 517 518 544
f 518 492 493
f 492 518 517
f 518 519 545
f 519 518 493
f 467 468 494
f 468 495 494
f 469 468 443
f 495 468 469
f 442 468 467
f 468 442 443
f 694 695 723
f 667 694 666
f 694 667 695
f 630 629 602
f 629 630 658
f 629 601 602
f 629 628 601
f 600 599 572
f 573 600 572
f 600 573 601
f 599 600 627
f 600 628 627
f 628 600 601
f 686 659 687
f 685 686 714
f 659 686 658
f 686 685 658
f 686 715 714
f 715 686 687
f 800 771 772
f 685 713 684
f 713 712 684
f 712 713 741
f 713 685 714
f 742 713 714
f 713 742 741
f 766 737 738
f 766 738 767
f 763 764 792
f 764 763 735
f 680 709 708
f 709 680 681
f 737 709 738
f 709 737 708
f 769 768 740
f 768 739 740
f 739 768 767
f 628 656 627
f 683 656 684
f 656 655 627
f 655 656 683
f 939 911 940
f 911 912 940
f 911 883 912
f 910 911 939
f 654 625 626
f 655 654 626
f 654 682 681
f 654 655 682
f 654 653 625
f 653 654 681
f 623 651 622
f 651 650 622
f 651 623 652
f 679 651 652
f 914 886 915
f 943 914 915
f 914 885 886
f 980 981 1009
f 1008 980 1009
f 981 980 952
f 979 980 1008
f 949 950 978
f 950 979 978
f 921 950 949
f 950 921 922
f 717 689 718
f 689 690 718
f 662 689 661
f 689 662 690
f 688 689 717
f 689 688 661
f 716 715 687
f 716 688 717
f 688 716 687
f 888 887 859
f 887 888 916
f 919 948 947
f 948 919 920
f 919 918 890
f 918 919 947
f 832 803 804
f 833 832 804
f 801 800 772
f 800 801 829
f 773 801 772
f 801 773 802
f 830 801 802
f 801 830 829
f 1371 1351 1352
f 1350 1330 1351
f 1330 1350 1329
f 1310 1287 1288
f 1287 1310 1309
f 126 1390 125
f 1390 1406 1389
f 1406 126 127
f 126 1406 1390
f 128 1406 127
f 1406 128 1421
f 1443 1431 1432
f 1404 1403 1387
f 1400 1401 1416
f 1402 1401 1385
f 1414 1399 1415
f 1399 1414 1398
f 1399 1400 1415
f 1382 1399 1398
f 1364 1381 1363
f 1397 1381 1398
f 1381 1380 1363
f 1381 1397 1380
f 1382 1381 1364
f 1381 1382 1398
f 1429 1428 1415
f 1414 1428 1427
f 1428 1414 1415
f 1428 1439 1427
f 1451 139 140
f 1450 1451 140
f 141 1450 140
f 1191 1165 1166
f 1192 1191 1166
f 1191 1192 1217
f 1216 1241 1240
f 1241 1216 1217
f 1334 1313 118
f 1313 1334 1312
f 1332 1333 1353
f 1333 1354 1353
f 1334 1333 1312
f 1333 1334 1354
f 1325 1304 1326
f 1384 1367 1385
f 1384 1401 1400
f 1401 1384 1385
f 1103 1076 1104
f 1188 1187 1162
f 1163 1136 1137
f 1136 1163 1162
f 1163 1188 1162
f 1188 1163 1189
f 1215 1214 1189
f 1214 1188 1189
f 1285 1263 1286
f 1263 1285 1262
f 1260 1236 1237
f 1081 1082 1109
f 1082 1081 1054
f 1055 1082 1054
f 1082 1055 1083
f 1110 1082 1083
f 1082 1110 1109
f 1111 1084 1112
f 1138 1111 1112
f 1111 1138 1137
f 1084 1111 1083
f 1110 1111 1137
f 1111 1110 1083
f 1028 1000 1001
f 1000 1028 1027
f 1028 1055 1027
f 1030 1003 1031
f 1003 1030 1002
f 1058 1030 1031
f 1057 1030 1058
f 1093 1065 1066
f 1010 182 183
f 1014 1013 986
f 1012 1013 1040
f 1013 985 986
f 985 1013 1012
f 1041 1013 1014
f 1013 1041 1040
f 1067 1094 1066
f 1067 1039 1040
f 1039 1067 1066
f 1150 1175 1149
f 1121 1120 1094
f 1121 1147 1120
f 1070 1071 1098
f 1071 1099 1098
f 938 937 909
f 906 934 905
f 877 906 905
f 906 877 878
f 934 906 935
f 906 907 935
f 907 906 878
f 850 821 822
f 850 879 878
f 850 849 821
f 849 850 878
f 993 1020 992
f 1021 993 994
f 993 1021 1020
f 993 965 994
f 993 964 965
f 964 993 992
f 963 934 935
f 934 963 962
f 991 963 992
f 963 991 962
f 964 963 935
f 963 964 992
f 991 990 962
f 990 991 1018
f 990 961 962
f 1017 990 1018
f 897 926 925
f 898 926 897
f 869 897 868
f 840 869 868
f 841 869 840
f 870 869 841
f 898 869 870
f 869 898 897
f 982 983 1010
f 982 1010 183
f 1012 1011 984
f 1039 1011 1012
f 983 1011 1010
f 1011 983 984
f 956 985 984
f 955 956 984
f 985 956 957
f 956 928 957
f 987 1014 986
f 987 959 988
f 1015 987 988
f 987 1015 1014
f 987 958 959
f 958 987 986
f 1355 1335 1336
f 164 1335 163
f 1409 1394 1410
f 1378 1360 1361
f 1378 1394 1377
f 1360 1378 1377
f 1394 1378 1395
f 1378 1379 1395
f 1379 1378 1361
f 1337 1317 1338
f 1434 1435 148
f 1435 147 148
f 1445 145 146
f 147 1445 146
f 1435 1445 147
f 1323 1343 1322
f 1438 1426 1427
f 1426 1413 1427
f 1437 1426 1438
f 1426 1437 1425
f 1412 1426 1425
f 1426 1412 1413
f 1397 1396 1380
f 1396 1379 1380
f 1379 1396 1395
f 1412 1396 1397
f 167 1292 166
f 167 168 1292
f 1247 1270 169
f 1270 168 169
f 168 1270 1292
f 732 704 733
f 675 704 703
f 704 732 703
f 704 675 676
f 705 704 676
f 704 705 733
f 872 843 844
f 873 872 844
f 872 871 843
f 901 872 873
f 876 877 905
f 877 876 848
f 876 847 848
f 902 901 873
f 901 902 930
f 932 961 960
f 932 933 961
f 731 759 730
f 759 731 760
f 759 758 730
f 758 759 787
f 759 788 787
f 788 759 760
f 969 941 970
f 941 969 940
f 998 969 970
f 1026 1027 1054
f 1027 1026 999
f 1026 998 999
f 998 1026 1025
f 1026 1053 1025
f 1053 1026 1054
f 1108 1080 1081
f 1080 1108 1107
f 1080 1053 1081
f 1022 1021 994
f 1021 1022 1049
f 995 1022 994
f 1022 995 1023
f 1050 1022 1023
f 1022 1050 1049
f 1077 1076 1049
f 1077 1105 1104
f 1076 1077 1104
f 1105 1077 1078
f 1077 1050 1078
f 1050 1077 1049
f 1133 1134 1160
f 1134 1133 1107
f 1133 1106 1107
f 1133 1132 1106
f 1105 1131 1104
f 1132 1131 1105
f 1131 1132 1158
f 1210 1185 1211
f 1073 1045 1046
f 1073 1101 1100
f 1073 1074 1101
f 1074 1073 1046
f 1206 1180 1181
f 1180 1155 1181
f 1155 1154 1128
f 1154 1127 1128
f 1180 1154 1155
f 1047 1074 1046
f 1019 1047 1046
f 1047 1019 1020
f 1048 1047 1020
f 241 259 258
f 259 277 258
f 277 259 278
f 259 260 278
f 261 243 244
f 243 227 228
f 244 243 228
f 260 243 261
f 319 298 320
f 299 298 279
f 298 278 279
f 298 299 320
f 297 298 319
f 298 297 278
f 317 318 340
f 318 317 296
f 297 318 296
f 318 297 319
f 405 381 382
f 405 429 404
f 406 405 382
f 381 405 404
f 405 430 429
f 430 405 406
f 381 19 20
f 18 19 381
f 263 246 264
f 231 246 230
f 245 246 263
f 246 245 230
f 247 246 231
f 246 247 264
f 282 302 301
f 302 282 283
f 254 272 271
f 290 272 291
f 272 290 271
f 272 254 255
f 273 272 255
f 272 273 291
f 306 327 305
f 327 326 305
f 327 306 328
f 327 349 326
f 270 252 253
f 236 252 251
f 221 220 208
f 209 221 208
f 220 221 235
f 221 236 235
f 266 285 284
f 304 285 305
f 285 304 284
f 285 286 305
f 233 232 218
f 306 287 307
f 287 286 268
f 286 287 306
f 287 288 307
f 356 377 355
f 377 376 355
f 377 356 378
f 400 377 378
f 399 377 400
f 377 399 376
f 448 423 424
f 423 400 424
f 423 447 422
f 447 423 448
f 399 423 422
f 423 399 400
f 399 398 376
f 421 398 422
f 398 375 376
f 398 399 422
f 397 398 421
f 398 397 375
f 625 598 626
f 599 598 571
f 598 625 597
f 598 599 626
f 570 598 597
f 598 570 571
f 542 570 569
f 570 542 543
f 437 463 462
f 463 489 462
f 514 540 513
f 488 514 513
f 489 514 488
f 514 489 515
f 70 314 69
f 314 68 69
f 335 314 336
f 314 70 336
f 548 547 521
f 548 522 549
f 522 548 521
f 548 575 547
f 630 603 631
f 603 630 602
f 603 604 631
f 575 603 602
f 578 550 551
f 551 550 524
f 550 523 524
f 523 550 549
f 577 550 578
f 550 577 549
f 560 559 532
f 559 587 586
f 559 531 532
f 559 560 587
f 559 558 531
f 558 559 586
f 412 413 437
f 486 460 487
f 461 460 435
f 460 434 435
f 460 461 487
f 459 460 486
f 460 459 434
f 525 500 526
f 501 500 474
f 500 501 526
f 500 525 499
f 473 500 499
f 500 473 474
f 1169 1170 1195
f 1170 1169 1143
f 1144 1170 1143
f 1170 1196 1195
f 715 743 714
f 743 742 714
f 743 771 742
f 771 743 772
f 799 828 827
f 799 827 798
f 799 800 828
f 799 771 800
f 821 793 822
f 793 821 792
f 764 793 792
f 736 707 708
f 707 736 735
f 737 736 708
f 736 764 735
f 710 682 711
f 739 710 711
f 682 710 681
f 710 739 738
f 709 710 738
f 710 709 681
f 657 685 684
f 657 629 658
f 685 657 658
f 629 657 628
f 657 656 628
f 656 657 684
f 881 910 909
f 650 678 677
f 678 706 677
f 706 678 707
f 678 679 707
f 678 651 679
f 651 678 650
f 942 943 971
f 970 942 971
f 941 942 970
f 942 914 943
f 923 951 922
f 980 951 952
f 951 923 952
f 951 980 979
f 950 951 979
f 951 950 922
f 745 716 717
f 918 889 890
f 803 775 804
f 831 830 802
f 830 831 859
f 831 803 832
f 803 831 802
f 892 921 920
f 835 863 834
f 862 833 834
f 863 862 834
f 1372 1352 1353
f 1373 1372 1353
f 1390 1372 1373
f 1372 1390 1389
f 1371 1372 1389
f 1372 1371 1352
f 1388 1371 1389
f 1388 1404 1387
f 1331 1330 1309
f 1331 1332 1352
f 1351 1331 1352
f 1330 1331 1351
f 1310 1331 1309
f 1331 1310 1332
f 1444 1443 1432
f 135 1444 134
f 1444 135 136
f 1443 1444 136
f 1433 1444 1432
f 1444 133 134
f 1444 1433 133
f 1452 136 137
f 1452 1443 136
f 1430 1429 1416
f 1419 1404 1420
f 1433 1419 1420
f 1419 1433 1432
f 1419 1403 1404
f 138 1452 137
f 1452 138 1451
f 138 139 1451
f 1449 1450 141
f 1448 1449 142
f 1449 141 142
f 1439 1449 1448
f 1190 1191 1216
f 1190 1215 1189
f 1215 1190 1216
f 1190 1165 1191
f 1139 1138 1112
f 1113 1139 1112
f 1139 1140 1166
f 1140 1139 1113
f 1165 1139 1166
f 1139 1165 1138
f 1193 1167 1168
f 1140 1167 1166
f 1192 1167 1193
f 1167 1192 1166
f 1313 117 118
f 1289 1311 1288
f 1311 1310 1288
f 1311 1289 1312
f 1310 1311 1332
f 1311 1333 1332
f 1333 1311 1312
f 1169 1194 1168
f 1194 1193 1168
f 1194 1169 1195
f 1220 1194 1195
f 1221 1196 1222
f 1196 1221 1195
f 1221 1222 1246
f 1221 1220 1195
f 1304 1281 1282
f 1347 1366 1346
f 1346 1366 1365
f 1367 1366 1347
f 1384 1366 1367
f 1208 1183 1209
f 1276 1254 1277
f 1254 1230 1231
f 1230 1206 1231
f 1134 1161 1160
f 1135 1161 1134
f 1161 1135 1162
f 1187 1161 1162
f 1236 1212 1237
f 1212 1236 1211
f 1264 1265 1287
f 1241 1264 1240
f 1264 1287 1286
f 1264 1241 1265
f 1264 1263 1240
f 1263 1264 1286
f 1214 1239 1238
f 1239 1215 1240
f 1239 1262 1238
f 1239 1214 1215
f 1239 1263 1262
f 1263 1239 1240
f 1330 1308 1309
f 1309 1308 1286
f 1308 1330 1329
f 1308 1285 1286
f 1056 1084 1083
f 1055 1056 1083
f 1056 1057 1084
f 1028 1056 1055
f 1087 1086 1059
f 1142 1169 1168
f 1169 1142 1143
f 1065 180 181
f 1041 1068 1040
f 1068 1041 1069
f 1096 1068 1069
f 1068 1067 1040
f 1124 1097 1098
f 1175 1174 1149
f 174 1172 1198
f 1172 174 175
f 176 1172 175
f 1043 1070 1042
f 1043 1015 1016
f 1015 1043 1042
f 1043 1071 1070
f 907 936 935
f 936 964 935
f 964 936 965
f 936 937 965
f 965 966 994
f 966 938 967
f 966 995 994
f 995 966 967
f 966 937 938
f 937 966 965
f 988 989 1016
f 960 989 988
f 961 989 960
f 989 1017 1016
f 989 990 1017
f 990 989 961
f 184 982 183
f 983 954 955
f 926 954 925
f 954 926 955
f 982 954 983
f 184 954 982
f 954 185 925
f 954 184 185
f 1038 1039 1066
f 1065 1038 1066
f 1038 1011 1039
f 1011 1038 1010
f 1038 1065 181
f 1038 182 1010
f 182 1038 181
f 928 927 899
f 926 927 955
f 927 898 899
f 927 926 898
f 956 927 928
f 927 956 955
f 1316 1337 1336
f 1337 1316 1317
f 1316 1295 1317
f 161 162 1355
f 1335 162 163
f 162 1335 1355
f 160 161 1355
f 1409 1422 1408
f 1408 1422 152
f 150 1422 1434
f 1394 1393 1377
f 1393 1376 1377
f 1392 1393 1408
f 1393 1392 1376
f 1409 1393 1394
f 1393 1409 1408
f 149 1434 148
f 149 150 1434
f 1422 151 152
f 151 1422 150
f 1374 158 159
f 158 1374 157
f 1391 156 157
f 1374 1391 157
f 155 1391 1407
f 156 1391 155
f 1391 1392 1407
f 1357 1337 1338
f 1446 1437 1447
f 1445 1446 145
f 1446 1447 144
f 145 1446 144
f 1318 1339 1338
f 1317 1318 1338
f 1228 1204 1229
f 1379 1362 1380
f 1380 1362 1363
f 1362 1379 1361
f 1362 1343 1363
f 1232 1255 1231
f 1254 1255 1277
f 1255 1254 1231
f 1255 1278 1277
f 1323 1302 1324
f 1345 1344 1324
f 1344 1364 1363
f 1344 1345 1364
f 1343 1344 1363
f 1323 1344 1343
f 1344 1323 1324
f 1360 1341 1361
f 1278 1300 1277
f 1321 1300 1322
f 1223 1224 1247
f 1199 1223 1198
f 1224 1223 1199
f 1223 172 1198
f 1223 171 172
f 1223 1247 171
f 1248 1224 1225
f 1224 1248 1247
f 1270 1248 1271
f 1248 1270 1247
f 900 928 899
f 871 900 899
f 928 900 929
f 900 901 929
f 900 872 901
f 872 900 871
f 847 875 846
f 876 875 847
f 931 902 903
f 931 959 930
f 959 931 960
f 902 931 930
f 932 931 903
f 931 932 960
f 995 996 1023
f 996 995 967
f 996 1024 1023
f 1024 1051 1023
f 1050 1051 1078
f 1051 1050 1023
f 1132 1159 1158
f 1185 1159 1160
f 1133 1159 1132
f 1159 1133 1160
f 1155 1156 1181
f 1236 1235 1211
f 1235 1210 1211
f 1071 1072 1099
f 1099 1072 1100
f 1073 1072 1045
f 1072 1073 1100
f 1179 1154 1180
f 1075 1103 1102
f 1075 1048 1076
f 1074 1075 1102
f 1103 1075 1076
f 1075 1047 1048
f 1047 1075 1074
f 242 259 241
f 242 241 226
f 227 242 226
f 259 242 260
f 242 243 260
f 243 242 227
f 341 362 340
f 341 342 363
f 362 341 363
f 342 341 319
f 341 318 319
f 318 341 340
f 323 345 322
f 301 323 322
f 346 323 324
f 323 346 345
f 323 302 324
f 302 323 301
f 304 303 284
f 325 303 304
f 303 283 284
f 303 325 324
f 303 302 283
f 302 303 324
f 349 350 371
f 350 351 372
f 350 372 371
f 351 350 328
f 327 350 349
f 350 327 328
f 237 238 253
f 237 223 238
f 237 252 236
f 252 237 253
f 286 267 268
f 267 250 268
f 285 267 286
f 267 285 266
f 220 219 207
f 206 219 218
f 219 206 207
f 219 233 218
f 247 248 265
f 248 266 265
f 248 247 232
f 233 248 232
f 288 269 270
f 252 269 251
f 269 268 251
f 269 252 270
f 287 269 288
f 269 287 268
f 516 491 517
f 516 517 543
f 542 516 543
f 516 542 515
f 541 568 540
f 541 542 569
f 568 541 569
f 542 541 515
f 541 514 515
f 514 541 540
f 313 334 312
f 313 335 334
f 293 313 312
f 313 314 335
f 314 313 68
f 313 293 67
f 68 313 67
f 576 548 549
f 577 576 549
f 576 577 604
f 548 576 575
f 576 603 575
f 603 576 604
f 463 438 464
f 438 439 464
f 438 463 437
f 413 438 437
f 389 366 367
f 366 389 388
f 389 412 388
f 389 413 412
f 1145 1171 1144
f 1170 1171 1196
f 1171 1170 1144
f 107 1145 106
f 107 1171 1145
f 1171 107 108
f 805 833 804
f 833 805 834
f 779 780 808
f 722 694 723
f 742 770 741
f 769 770 798
f 770 769 741
f 771 770 742
f 799 770 771
f 770 799 798
f 766 765 737
f 765 793 764
f 736 765 764
f 765 736 737
f 911 882 883
f 882 854 883
f 882 911 910
f 881 882 910
f 881 880 852
f 880 881 909
f 823 824 852
f 885 913 884
f 913 912 884
f 913 941 912
f 914 913 885
f 942 913 914
f 913 942 941
f 716 744 715
f 744 773 772
f 743 744 772
f 744 743 715
f 745 744 716
f 744 745 773
f 916 917 945
f 917 946 945
f 917 918 946
f 888 917 916
f 889 917 888
f 917 889 918
f 774 803 802
f 745 774 773
f 773 774 802
f 774 775 803
f 860 889 888
f 860 888 859
f 860 831 832
f 831 860 859
f 891 919 890
f 919 891 920
f 891 892 920
f 892 891 863
f 891 862 863
f 862 891 890
f 1404 1405 1420
f 1405 1421 1420
f 1406 1405 1389
f 1405 1406 1421
f 1388 1405 1404
f 1405 1388 1389
f 1368 1386 1385
f 1403 1386 1387
f 1386 1402 1385
f 1386 1403 1402
f 1369 1386 1368
f 1386 1369 1387
f 1349 1368 1348
f 1350 1349 1329
f 1369 1349 1350
f 1349 1369 1368
f 1370 1388 1387
f 1371 1370 1351
f 1370 1350 1351
f 1388 1370 1371
f 1370 1369 1350
f 1369 1370 1387
f 1401 1417 1416
f 1417 1401 1402
f 1430 1417 1431
f 1417 1430 1416
f 1442 1431 1443
f 1442 1452 1451
f 1452 1442 1443
f 1442 1430 1431
f 1428 1440 1439
f 1440 1428 1429
f 1449 1440 1450
f 1440 1449 1439
f 1165 1164 1138
f 1138 1164 1137
f 1163 1164 1189
f 1164 1163 1137
f 1190 1164 1165
f 1164 1190 1189
f 1218 1192 1193
f 1192 1218 1217
f 1265 1266 1288
f 1266 1289 1288
f 1383 1382 1365
f 1399 1383 1400
f 1383 1399 1382
f 1383 1384 1400
f 1383 1366 1384
f 1366 1383 1365
f 1208 1233 1232
f 1233 1208 1209
f 1207 1232 1231
f 1206 1207 1231
f 1207 1206 1181
f 1207 1208 1232
f 1252 1228 1229
f 1186 1185 1160
f 1161 1186 1160
f 1185 1186 1211
f 1186 1161 1187
f 1212 1186 1187
f 1186 1212 1211
f 1213 1187 1188
f 1213 1214 1238
f 1213 1238 1237
f 1214 1213 1188
f 1212 1213 1237
f 1213 1212 1187
f 1285 1284 1262
f 1327 1347 1326
f 1347 1327 1348
f 1029 1028 1001
f 1030 1029 1002
f 1002 1029 1001
f 1029 1030 1057
f 1029 1056 1028
f 1056 1029 1057
f 1033 1060 1032
f 1060 1033 1061
f 1060 1059 1032
f 1060 1087 1059
f 1114 1140 1113
f 1086 1114 1113
f 1087 1114 1086
f 1114 1087 1115
f 1116 1089 1117
f 1143 1116 1117
f 1116 1142 1115
f 1142 1116 1143
f 178 179 1093
f 179 1065 1093
f 179 180 1065
f 1095 1096 1122
f 1121 1095 1122
f 1067 1095 1094
f 1095 1121 1094
f 1068 1095 1067
f 1095 1068 1096
f 1123 1096 1097
f 1096 1123 1122
f 1123 1149 1122
f 1123 1150 1149
f 1123 1124 1150
f 1124 1123 1097
f 1124 1151 1150
f 1224 1200 1225
f 1200 1224 1199
f 1200 1174 1175
f 1174 1200 1199
f 1149 1148 1122
f 1148 1121 1122
f 1148 1147 1121
f 1174 1148 1149
f 1172 1146 1147
f 1146 1172 176
f 1146 176 177
f 1120 1146 177
f 1147 1146 1120
f 1295 1272 1273
f 1272 1250 1273
f 1270 1293 1292
f 1293 1270 1271
f 1356 160 1355
f 1337 1356 1336
f 1356 1355 1336
f 1357 1356 1337
f 1356 1357 1374
f 1356 1374 159
f 160 1356 159
f 1358 1359 1376
f 1339 1358 1338
f 1358 1339 1359
f 1358 1357 1338
f 1411 1412 1425
f 1396 1411 1395
f 1395 1411 1410
f 1411 1396 1412
f 1424 1411 1425
f 1411 1424 1410
f 1422 1423 1434
f 1423 1409 1410
f 1423 1435 1434
f 1423 1422 1409
f 1423 1424 1435
f 1424 1423 1410
f 1437 1436 1425
f 1436 1424 1425
f 1436 1445 1435
f 1424 1436 1435
f 1436 1446 1445
f 1446 1436 1437
f 1295 1296 1317
f 1274 1296 1273
f 1296 1274 1297
f 1296 1295 1273
f 1296 1318 1317
f 1318 1296 1297
f 1303 1304 1325
f 1303 1325 1324
f 1303 1281 1304
f 1302 1303 1324
f 1342 1362 1361
f 1343 1342 1322
f 1342 1321 1322
f 1362 1342 1343
f 1342 1341 1321
f 1341 1342 1361
f 1302 1301 1279
f 1301 1278 1279
f 1301 1323 1322
f 1301 1302 1323
f 1301 1300 1278
f 1300 1301 1322
f 874 845 846
f 874 902 873
f 845 874 873
f 902 874 903
f 874 875 903
f 875 874 846
f 904 876 905
f 933 904 905
f 904 932 903
f 932 904 933
f 904 875 876
f 875 904 903
f 939 968 967
f 968 939 940
f 969 968 940
f 968 996 967
f 1106 1079 1107
f 1078 1079 1106
f 1079 1080 1107
f 1051 1079 1078
f 1184 1183 1158
f 1183 1184 1209
f 1184 1210 1209
f 1210 1184 1185
f 1184 1159 1185
f 1159 1184 1158
f 1183 1157 1158
f 1157 1131 1158
f 1103 1129 1102
f 1102 1129 1128
f 1129 1155 1128
f 1129 1156 1155
f 1017 1044 1016
f 1044 1043 1016
f 1044 1017 1045
f 1043 1044 1071
f 1044 1072 1071
f 1072 1044 1045
f 1151 1152 1177
f 1205 1230 1229
f 1204 1205 1229
f 1205 1180 1206
f 1230 1205 1206
f 1205 1179 1180
f 1179 1205 1204
f 222 221 209
f 222 209 210
f 223 222 210
f 221 222 236
f 222 237 236
f 237 222 223
f 234 220 235
f 250 234 235
f 219 234 233
f 234 219 220
f 491 490 464
f 489 490 515
f 490 463 464
f 463 490 489
f 516 490 491
f 490 516 515
f 439 414 415
f 414 391 415
f 414 438 413
f 438 414 439
f 1197 1171 108
f 109 1197 108
f 1171 1197 1196
f 1196 1197 1222
f 1222 1197 110
f 1197 109 110
f 665 692 664
f 806 835 834
f 805 806 834
f 794 823 822
f 793 794 822
f 765 794 793
f 794 765 766
f 937 908 909
f 908 936 907
f 908 907 879
f 936 908 937
f 880 908 879
f 908 880 909
f 851 823 852
f 851 850 822
f 850 851 879
f 823 851 822
f 880 851 852
f 851 880 879
f 854 825 826
f 889 861 890
f 833 861 832
f 861 862 890
f 862 861 833
f 860 861 889
f 861 860 832
f 865 866 894
f 1403 1418 1402
f 1431 1418 1432
f 1418 1419 1432
f 1419 1418 1403
f 1417 1418 1431
f 1418 1417 1402
f 1441 1442 1451
f 1430 1441 1429
f 1450 1441 1451
f 1442 1441 1430
f 1440 1441 1450
f 1441 1440 1429
f 1194 1219 1193
f 1219 1194 1220
f 1218 1219 1243
f 1219 1218 1193
f 1241 1242 1265
f 1242 1218 1243
f 1242 1241 1217
f 1218 1242 1217
f 1266 1242 1243
f 1242 1266 1265
f 1291 115 116
f 117 1291 116
f 1291 117 1313
f 1221 1245 1220
f 1245 1221 1246
f 1267 1266 1243
f 1266 1267 1289
f 1256 1257 1279
f 1278 1256 1279
f 1256 1255 1232
f 1255 1256 1278
f 1256 1233 1257
f 1233 1256 1232
f 1341 1320 1321
f 1276 1253 1254
f 1230 1253 1229
f 1253 1230 1254
f 1253 1252 1229
f 1251 1274 1273
f 1250 1251 1273
f 1251 1250 1227
f 1228 1251 1227
f 1252 1251 1228
f 1251 1252 1274
f 1262 1261 1238
f 1238 1261 1237
f 1261 1260 1237
f 1284 1261 1262
f 1308 1307 1285
f 1307 1308 1329
f 1307 1284 1285
f 1284 1307 1306
f 1304 1305 1326
f 1305 1304 1282
f 1327 1305 1306
f 1305 1327 1326
f 1142 1141 1115
f 1167 1141 1168
f 1141 1167 1140
f 1141 1142 1168
f 1141 1114 1115
f 1114 1141 1140
f 1088 1060 1061
f 1087 1088 1115
f 1089 1088 1061
f 1060 1088 1087
f 1088 1116 1115
f 1116 1088 1089
f 1250 1226 1227
f 1226 1202 1227
f 1228 1203 1204
f 1203 1228 1227
f 1203 1202 1177
f 1202 1203 1227
f 1151 1176 1150
f 1176 1175 1150
f 1176 1151 1177
f 1202 1176 1177
f 1173 1199 1198
f 1172 1173 1198
f 1173 1174 1199
f 1173 1172 1147
f 1173 1148 1174
f 1148 1173 1147
f 164 1314 1335
f 165 1314 164
f 1314 165 166
f 1292 1314 166
f 1293 1314 1292
f 1272 1294 1271
f 1316 1294 1295
f 1294 1272 1295
f 1294 1293 1271
f 1391 1375 1392
f 1392 1375 1376
f 1375 1391 1374
f 1357 1375 1374
f 1358 1375 1357
f 1375 1358 1376
f 997 998 1025
f 1024 997 1025
f 997 969 998
f 996 997 1024
f 968 997 996
f 997 968 969
f 1052 1024 1025
f 1053 1052 1025
f 1080 1052 1053
f 1052 1051 1024
f 1052 1079 1051
f 1079 1052 1080
f 1156 1182 1181
f 1208 1182 1183
f 1182 1207 1181
f 1207 1182 1208
f 1157 1182 1156
f 1182 1157 1183
f 1130 1157 1156
f 1130 1103 1104
f 1131 1130 1104
f 1157 1130 1131
f 1129 1130 1156
f 1130 1129 1103
f 1257 1280 1279
f 1303 1280 1281
f 1280 1302 1279
f 1280 1303 1302
f 1258 1280 1257
f 1280 1258 1281
f 1259 1260 1282
f 1260 1259 1236
f 1281 1259 1282
f 1259 1235 1236
f 1259 1258 1235
f 1258 1259 1281
f 1210 1234 1209
f 1235 1234 1210
f 1233 1234 1257
f 1234 1233 1209
f 1258 1234 1235
f 1234 1258 1257
f 1154 1153 1127
f 1127 1153 1126
f 1179 1153 1154
f 1153 1152 1126
f 1125 1099 1126
f 1099 1125 1098
f 1125 1124 1098
f 1125 1151 1124
f 1125 1152 1151
f 1152 1125 1126
f 249 267 266
f 248 249 266
f 267 249 250
f 249 248 233
f 234 249 233
f 249 234 250
f 390 389 367
f 368 390 367
f 391 390 368
f 389 390 413
f 390 414 413
f 414 390 391
f 748 720 749
f 746 774 745
f 746 717 718
f 746 745 717
f 774 746 775
f 746 747 775
f 747 746 718
f 691 690 663
f 664 691 663
f 691 692 720
f 692 691 664
f 694 693 666
f 693 665 666
f 722 693 694
f 693 692 665
f 807 836 835
f 836 807 808
f 807 779 808
f 806 807 835
f 780 751 752
f 751 723 752
f 779 751 780
f 751 722 723
f 750 751 779
f 751 750 722
f 795 766 767
f 795 824 823
f 794 795 823
f 795 794 766
f 882 853 854
f 853 881 852
f 853 882 881
f 824 853 852
f 825 853 824
f 853 825 854
f 797 769 798
f 797 768 769
f 826 797 798
f 825 797 826
f 837 809 838
f 809 837 808
f 866 837 838
f 837 836 808
f 837 865 836
f 865 837 866
f 892 893 921
f 893 894 922
f 921 893 922
f 893 865 894
f 115 1269 114
f 1291 1269 115
f 1269 1246 113
f 114 1269 113
f 1269 1291 1268
f 1245 1269 1268
f 1269 1245 1246
f 1290 1313 1312
f 1289 1290 1312
f 1290 1291 1313
f 1291 1290 1268
f 1290 1267 1268
f 1267 1290 1289
f 1245 1244 1220
f 1244 1219 1220
f 1219 1244 1243
f 1244 1245 1268
f 1244 1267 1243
f 1267 1244 1268
f 1300 1299 1277
f 1299 1276 1277
f 1299 1300 1321
f 1299 1298 1276
f 1299 1320 1298
f 1320 1299 1321
f 1339 1340 1359
f 1359 1340 1360
f 1340 1341 1360
f 1340 1320 1341
f 1274 1275 1297
f 1298 1275 1276
f 1275 1298 1297
f 1252 1275 1274
f 1253 1275 1252
f 1275 1253 1276
f 1328 1327 1306
f 1328 1349 1348
f 1349 1328 1329
f 1327 1328 1348
f 1307 1328 1306
f 1328 1307 1329
f 1260 1283 1282
f 1261 1283 1260
f 1283 1284 1306
f 1283 1261 1284
f 1305 1283 1306
f 1283 1305 1282
f 1249 1248 1225
f 1249 1272 1271
f 1248 1249 1271
f 1272 1249 1250
f 1249 1226 1250
f 1226 1249 1225
f 1201 1226 1225
f 1200 1201 1225
f 1201 1200 1175
f 1226 1201 1202
f 1201 1176 1202
f 1176 1201 1175
f 1315 1316 1336
f 1335 1315 1336
f 1314 1315 1335
f 1315 1314 1293
f 1294 1315 1293
f 1315 1294 1316
f 1152 1178 1177
f 1178 1179 1204
f 1203 1178 1204
f 1178 1203 1177
f 1153 1178 1152
f 1178 1153 1179
f 747 776 775
f 775 776 804
f 776 805 804
f 748 776 747
f 748 719 720
f 719 747 718
f 690 719 718
f 719 748 747
f 719 691 720
f 691 719 690
f 721 750 749
f 720 721 749
f 692 721 720
f 750 721 722
f 693 721 692
f 721 693 722
f 750 778 749
f 778 750 779
f 778 807 806
f 807 778 779
f 796 825 824
f 796 795 767
f 768 796 767
f 795 796 824
f 796 797 825
f 797 796 768
f 864 892 863
f 836 864 835
f 835 864 863
f 865 864 836
f 893 864 865
f 864 893 892
f 1319 1318 1297
f 1298 1319 1297
f 1318 1319 1339
f 1320 1319 1298
f 1340 1319 1320
f 1319 1340 1339
f 776 777 805
f 777 748 749
f 777 806 805
f 777 776 748
f 777 778 806
f 778 777 749
