# Rhino

v -484.954825884 -33.8564604149 -166.447990348
p 1
v -479.451863396 -75.6556184279 -166.447990348
p 2
v -470.326803308 -116.816110884 -166.447990348
p 3
v -457.649093097 -157.024674989 -166.447990348
p 4
v -441.515215453 -195.975303555 -166.447990348
p 5
v -422.04796321 -233.371548194 -166.447990348
p 6
v -399.395500836 -268.928793425 -166.447990348
p 7
v -373.730202446 -302.376462871 -166.447990348
p 8
v -345.24742144 -333.459964148 -166.447990348
p 9
v -314.16389838 -361.942763803 -166.447990348
p 10
v -280.716239056 -387.6080524 -166.447990348
p 11
v -245.159004088 -410.260507699 -166.447990348
p 12
v -207.762773293 -429.727753586 -166.447990348
p 13
v -168.812135313 -445.861636167 -166.447990348
p 14
v -128.603575447 -458.539345755 -166.447990348
p 15
v -87.4430890327 -467.664405654 -166.447990348
p 16
v -45.6439060362 -473.167371715 -166.447990348
p 17
v -3.52419718824 -475.006356939 -166.447990348
p 18
v 38.595511624 -473.167370895 -166.447990348
p 19
v 80.3946696369 -467.664408408 -166.447990348
p 20
v 121.555162093 -458.53934832 -166.447990348
p 21
v 161.763726198 -445.861638109 -166.447990348
p 22
v 200.714354764 -429.727760464 -166.447990348
p 23
v 238.110599403 -410.260508222 -166.447990348
p 24
v 273.667844634 -387.608045847 -166.447990348
p 25
v 307.11551408 -361.942747457 -166.447990348
p 26
v 338.199015357 -333.459966452 -166.447990348
p 27
v 366.681815012 -302.376443391 -166.447990348
p 28
v 392.347103609 -268.928784068 -166.447990348
p 29
v 414.999558908 -233.3715491 -166.447990348
p 30
v 434.466804795 -195.975318305 -166.447990348
p 31
v 450.600687376 -157.024680324 -166.447990348
p 32
v 463.278396964 -116.816120458 -166.447990348
p 33
v 472.403456863 -75.6556340442 -166.447990348
p 34
v 477.906422924 -33.8564510477 -166.447990348
p 35
v 479.745408148 8.26325780028 -166.447990348
p 36
v 477.906422104 50.3829666125 -166.447990348
p 37
v -484.954825884 -33.8564604149 -166.447990348
p 38
v -486.793811927 8.26324839731 -166.447990348
p 39
v -484.954826697 50.382957311 -166.447990348
p 40
v -479.451860643 92.1821402418 -166.447990348
p 41
v -470.326800743 133.342626656 -166.447990348
p 42
v -457.649091155 173.551186522 -166.447990348
p 43
v -441.515213836 212.501813219 -166.447990348
p 44
v -422.047962687 249.898055297 -166.447990348
p 45
v -399.395507388 285.455290265 -166.447990348
p 46
v -373.730201187 318.902970569 -166.447990348
p 47
v -345.247419137 349.986472649 -166.447990348
p 48
v -314.16391786 378.469253655 -166.447990348
p 49
v -280.71626064 404.134543484 -166.447990348
p 50
v -245.159003182 426.787014419 -166.447990348
p 51
v -207.762758543 446.254266662 -166.447990348
p 52
v -168.812129978 462.388144306 -166.447990348
p 53
v -128.603565873 475.065854517 -166.447990348
p 54
v -87.4430734164 484.190914606 -166.447990348
p 55
v -45.6439154034 489.693877093 -166.447990348
p 56
v -3.52420659121 491.532863136 -166.447990348
p 57
v 38.5955022568 489.693877912 -166.447990348
p 58
v 80.3946852533 484.190911852 -166.447990348
p 59
v 121.555171667 475.065851952 -166.447990348
p 60
v 161.763731533 462.388142364 -166.447990348
p 61
v 200.71435823 446.254265045 -166.447990348
p 62
v 238.110600309 426.787013896 -166.447990348
p 63
v 273.667835277 404.134558597 -166.447990348
p 64
v 307.11551558 378.469252396 -166.447990348
p 65
v 338.199017661 349.986470346 -166.447990348
p 66
v 366.681798666 318.902969069 -166.447990348
p 67
v 392.347088496 285.455311849 -166.447990348
p 68
v 414.999559431 249.898054391 -166.447990348
p 69
v 434.466811673 212.501809752 -166.447990348
p 70
v 450.600689318 173.551181187 -166.447990348
p 71
v 463.278399529 133.342617082 -166.447990348
p 72
v 472.403459617 92.1821246255 -166.447990348
p 73
v 477.906422104 50.3829666125 -166.447990348
p 74
