v 0.0 500.0 -166.447990336589
v 1.30439317916664e-07 486.611065479465 -166.447990336589
v 2.44072292600687e-07 474.947210365614 -166.447990336589
v 2.44072292600687e-07 466.321660944509 -158.744094342201
v 2.44072292600687e-07 458.311554593143 -151.623932079792
v 2.44072292600687e-07 449.480942141951 -143.807777156375
v 2.44072292600687e-07 439.544401454185 -135.012810724842
v 2.44072292600687e-07 429.982937658705 -126.724736534389
v 2.44072292600687e-07 420.283537609027 -118.339692979448
v 2.44072292600687e-07 410.473148527706 -110.055326889366
v 2.44072292600687e-07 400.87224171938 -102.012749261809
v 2.44072292600687e-07 390.23260964421 -93.3151522124406
v 2.44072292600687e-07 380.122753361037 -85.1276665940285
v 2.44072292600687e-07 370.188320702934 -77.312597432877
v 2.44072292600687e-07 359.908221976031 -69.3094564686795
v 2.44072292600687e-07 350.249865009908 -62.0237249849263
v 2.44072292600687e-07 341.339629992538 -55.3138665683258
v 2.44072292600687e-07 332.018887945778 -48.5869629540455
v 2.44072292600687e-07 321.587239664686 -41.0582937506318
v 2.44072292600687e-07 310.110719813396 -33.1033771397136
v 2.44072292600687e-07 298.706482521386 -25.2509333110847
v 2.44072292600687e-07 288.473649375236 -18.465850935381
v 2.44072292600687e-07 277.540163044665 -11.2541425640143
v 2.44072292600687e-07 265.810425654365 -3.76777007098218
v 2.44072292600687e-07 255.5513056323 2.72586946540622
v 2.44072292600687e-07 244.643115657682 9.33901507647576
v 2.44072292600687e-07 233.839031870869 15.8569007239939
v 2.44072292600687e-07 223.855758959253 21.6663066507574
v 2.44072292600687e-07 213.584473320218 27.6278780319435
v 2.44072292600687e-07 201.94607964898 34.0797123479234
v 2.44072292600687e-07 190.844623991003 40.1696227338046
v 2.44072292600687e-07 179.38868917636 46.0526604858221
v 2.44072292600687e-07 166.981753606382 52.2633095405359
v 2.44072292600687e-07 157.509830275674 56.3122281467168
v 2.44072292600687e-07 147.226810784781 60.3360059593745
v 2.44072292600687e-07 134.34747338676 64.6037374096023
v 2.44072292600687e-07 118.881329613042 67.6622344708058
v 2.44072292600687e-07 105.489379086212 69.8507502299784
v 2.44072292600687e-07 92.9911696415283 71.6698845866459
v 2.44072292600687e-07 79.767099549288 73.2831495283855
v 2.44072292600687e-07 67.0063324703111 74.5677396283671
v 2.44072292600687e-07 53.4208051352619 75.729657640744
v 2.44072292600687e-07 41.2604868126236 76.5492113175287
v 2.44072292600687e-07 27.1809662192056 77.2344923940766
v 2.44072292600687e-07 14.4212071212798 77.7154533305091
v 2.44072292600687e-07 1.79236888817436 77.7013257220763
v 2.44072292600687e-07 -10.8905574493959 77.6170108850524
v 2.44072292600687e-07 -22.1386989545697 77.1769914403836
v 2.44072292600687e-07 -35.7000442686229 76.4207675462992
v 2.44072292600687e-07 -48.1597789972179 75.5226580171416
v 2.44072292600687e-07 -59.1597762034437 74.3215573208822
v 2.44072292600687e-07 -69.6387980065659 73.1272886725661
v 2.44072292600687e-07 -81.2134301299918 71.3428923589258
v 2.44072292600687e-07 -92.5265967308778 69.4445862496527
v 2.44072292600687e-07 -103.559065213295 67.2474097902993
v 2.44072292600687e-07 -117.419487235753 64.1200017473788
v 2.44072292600687e-07 -132.598456414328 60.2509672808398
v 2.44072292600687e-07 -144.396704768668 56.8132598113542
v 2.44072292600687e-07 -156.165186728252 53.056160450011
v 2.44072292600687e-07 -167.665059992492 49.1415207935538
v 2.44072292600687e-07 -180.274252119332 44.3224475189507
v 2.44072292600687e-07 -192.929008164424 39.3163183592113
v 2.44072292600687e-07 -204.332293033394 34.2126579053906
v 2.44072292600687e-07 -216.223421682634 28.8906576442997
v 2.44072292600687e-07 -228.340046010922 22.7957454500846
v 2.44072292600687e-07 -241.513986903802 15.9099951337532
v 2.44072292600687e-07 -254.423789140142 8.71352473734712
v 2.44072292600687e-07 -265.669873411549 2.20283226484167
v 2.44072292600687e-07 -277.422672138401 -4.90236068527219
v 2.44072292600687e-07 -289.026384911994 -12.2078632808155
v 2.44072292600687e-07 -298.985428181461 -18.8442533714506
v 2.44072292600687e-07 -310.319541739749 -26.6928843331743
v 2.44072292600687e-07 -321.707422753412 -34.7615075561434
v 2.44072292600687e-07 -331.975736832561 -42.2038840573526
v 2.44072292600687e-07 -342.334112034411 -50.0833179675749
v 2.44072292600687e-07 -352.074428177905 -57.636680325683
v 2.44072292600687e-07 -361.990117150574 -65.5778312489238
v 2.44072292600687e-07 -371.091268541137 -72.9520047362093
v 2.44072292600687e-07 -380.410994669987 -80.6664154809635
v 2.44072292600687e-07 -389.902741098908 -88.6226273872166
v 2.44072292600687e-07 -398.92239047516 -96.5138522946792
v 2.44072292600687e-07 -408.429121693251 -104.831210318881
v 2.44072292600687e-07 -419.671955027346 -115.003761436061
v 2.44072292600687e-07 -431.6763712225 -125.919786677557
v 2.44072292600687e-07 -442.719449697587 -136.178005072478
v 2.44072292600687e-07 -453.607905466807 -146.307913035395
v 2.44072292600687e-07 -464.540248889729 -156.62586740341
v 2.44072292600687e-07 -474.947210365614 -166.447990336589
v 1.16835600450187e-07 -488.007444646443 -166.447990336589
v 0.0 -500.0 -166.447990336589
l 1 2 3 4 5 6 7 8 9 10 11 12 13 14 15 16 17 18 19 20 21 22 23 24 25 26 27 28 29 30 31 32 33 34 35 36 37 38 39 40 41 42 43 44 45 46 47 48 49 50 51 52 53 54 55 56 57 58 59 60 61 62 63 64 65 66 67 68 69 70 71 72 73 74 75 76 77 78 79 80 81 82 83 84 85 86 87 88 89 90
