v -0.086820742 -0.59171249 -3.7279946e-09
v 0.049477399 -0.59795651 -3.7279946e-09
v 0.10332992 -0.58885279 -3.7279946e-09
v 0.31907604 -0.50663858 -3.7279946e-09
v 0.425297 -0.42153628 -3.7279946e-09
v 0.53469831 -0.2720624 -3.7279946e-09
v 0.58992517 -0.10070605 -3.7279946e-09
v 0.58930487 0.1053273 -3.7279946e-09
v 0.55276487 0.23136848 -3.7279946e-09
v 0.46491958 0.3768861 -3.7279946e-09
v 0.38171289 0.46238686 -3.7279946e-09
v 0.26605703 0.53576018 -3.7279946e-09
v 0.077015132 0.5933852 -3.7279946e-09
v 0.020637241 0.59831713 -3.7279946e-09
v -0.11386539 0.58803378 -3.7279946e-09
v -0.39876804 0.445829 -3.7279946e-09
v -0.52020742 0.29600711 -3.7279946e-09
v -0.581631 0.14269472 -3.7279946e-09
v -0.59797228 0.037804995 -3.7279946e-09
v -0.59186914 -0.09099958 -3.7279946e-09
v -0.53816359 -0.26441586 -3.7279946e-09
v -0.47555513 -0.36441277 -3.7279946e-09
v -0.40711584 -0.43955133 -3.7279946e-09
v -0.30796843 -0.51270808 -3.7279946e-09
v -0.26383026 -0.53750229 -3.7279946e-09
v -0.13952592 -0.58254778 -3.7279946e-09
v -0.015124542 0.0065826775 -3.7279946e-09
v 0.0095452193 -0.34111149 -3.7279946e-09
v -0.28666053 0.0082761653 -3.7279946e-09
v -0.23666523 -0.26508348 -3.7279946e-09
v 0.35823182 -0.0039813197 -3.7279946e-09
v 0.32035555 -0.28247191 -3.7279946e-09
v -0.022005585 0.32462407 -3.7279946e-09
v 0.29742855 0.25615638 -3.7279946e-09
v -0.30620425 0.30147418 -3.7279946e-09
v -0.14013886 0.084121166 -3.7279946e-09
v 0.13105722 -0.15503347 -3.7279946e-09
v -0.42496792 -0.21704371 -3.7279946e-09
v 0.21878476 0.44096435 -3.7279946e-09
v -0.48437289 0.35050328 -3.7279946e-09
v 0.26648809 -0.53585376 -3.7279946e-09
v -0.56767315 0.18789056 -3.7279946e-09
v -0.44349813 -0.40101059 -3.7279946e-09
v 0.49886693 0.33075875 -3.7279946e-09
v 0.46213348 -0.37987932 -3.7279946e-09
v 0.59721004 0.042420148 -3.7279946e-09
v -0.17395794 0.57253779 -3.7279946e-09
v -0.59728995 -0.025667155 -3.7279946e-09
v -0.35055059 0.48470827 -3.7279946e-09
v 0.20704528 0.14927833 -3.7279946e-09
v 0.37225801 -0.13573367 -3.7279946e-09
v -0.2057847 0.33879324 -3.7279946e-09
v 0.14262533 -0.43243362 -3.7279946e-09
v -0.42309335 0.11335338 -3.7279946e-09
v -0.19754414 -0.42152997 -3.7279946e-09
v 0.21535733 0.49723101 -3.7279946e-09
v -0.5807405 -0.14323406 -3.7279946e-09
v -0.047975111 0.59591267 -3.7279946e-09
v -0.59069897 0.093560377 -3.7279946e-09
v 0.42514981 0.42055957 -3.7279946e-09
v -0.013385594 -0.59780932 -3.7279946e-09
v 0.37316849 -0.46707592 -3.7279946e-09
v 0.50194321 -0.32497943 -3.7279946e-09
v 0.59705024 -0.030993763 -3.7279946e-09
v 0.57360387 0.16857919 -3.7279946e-09
v -0.36191579 -0.4762238 -3.7279946e-09
v -0.14435376 -0.15701423 -3.7279946e-09
v 0.32238677 0.14363568 -3.7279946e-09
v -0.073732788 0.43221284 -3.7279946e-09
v -0.26896404 0.14174113 -3.7279946e-09
v 0.1448479 -0.21648018 -3.7279946e-09
v 0.46753011 -0.10937713 -3.7279946e-09
v 0.32069409 0.4275038 -3.7279946e-09
v -0.17791736 -0.47134654 -3.7279946e-09
v 0.15914218 0.51411479 -3.7279946e-09
v -0.50780348 -0.20908702 -3.7279946e-09
v 0.55894161 -0.21249868 -3.7279946e-09
v 0.52896945 0.27884262 -3.7279946e-09
v -0.54481554 0.24748267 -3.7279946e-09
v 0.20955803 -0.56004554 -3.7279946e-09
v -0.42007384 -0.32471974 -3.7279946e-09
v 0.38130917 0.061735935 -3.7279946e-09
v -0.48645668 -0.030821129 -3.7279946e-09
v 0.054443811 0.43060741 -3.7279946e-09
v -0.2746498 -0.2340894 -3.7279946e-09
v 0.027495995 0.12224367 -3.7279946e-09
v -0.39270485 0.20788847 -3.7279946e-09
v 0.18931305 -0.39429871 -3.7279946e-09
v -0.2835464 0.40032616 -3.7279946e-09
v 0.40147634 0.28685503 -3.7279946e-09
v 0.24448419 -0.13390115 -3.7279946e-09
v -0.16535151 0.48029466 -3.7279946e-09
v -0.5326366 0.06258291 -3.7279946e-09
v 0.49954505 -0.070496178 -3.7279946e-09
v -0.24752052 -0.47015325 -3.7279946e-09
v -0.4711205 -0.29542571 -3.7279946e-09
v -0.20176325 -0.5627654 -3.7279946e-09
v 0.11609742 0.41368894 -3.7279946e-09
v 0.40441174 0.013857864 -3.7279946e-09
v -0.037852622 -0.16385333 -3.7279946e-09
v -0.27538154 -0.083457653 -3.7279946e-09
v -0.050722524 0.2169207 -3.7279946e-09
v 0.21843045 -0.29871121 -3.7279946e-09
v 0.4165602 -0.25515969 -3.7279946e-09
v 0.095811232 -0.47184594 -3.7279946e-09
v 0.23925052 0.20980194 -3.7279946e-09
v -0.451868 0.2028472 -3.7279946e-09
v -0.31206347 -0.38148474 -3.7279946e-09
v -0.36219755 0.32307226 -3.7279946e-09
v -0.075984905 0.53408221 -3.7279946e-09
v 0.45995927 0.2681566 -3.7279946e-09
v -0.1023754 -0.53828134 -3.7279946e-09
v -0.51097964 -0.15082488 -3.7279946e-09
v 0.14609692 0.57974486 -3.7279946e-09
v 0.32798737 0.49992775 -3.7279946e-09
v -0.50819985 -0.31488743 -3.7279946e-09
v -0.13392007 -0.0081337166 -3.7279946e-09
v 0.15676086 0.032281678 -3.7279946e-09
v -0.15186152 -0.37714053 -3.7279946e-09
v 0.12784637 0.24835214 -3.7279946e-09
v -0.18242244 0.2893825 -3.7279946e-09
v 0.46039979 0.20550609 -3.7279946e-09
v 0.085520315 -0.19570952 -3.7279946e-09
v -0.45064212 -0.12813654 -3.7279946e-09
v 0.29564545 -0.37937046 -3.7279946e-09
v 0.17426809 -0.33662639 -3.7279946e-09
v 0.53696714 0.068701822 -3.7279946e-09
v -0.043535535 0.48391134 -3.7279946e-09
v -0.4552292 0.2954951 -3.7279946e-09
v 0.43100693 -0.15149775 -3.7279946e-09
v 0.064652722 0.48999661 -3.7279946e-09
v 0.33766303 0.36428766 -3.7279946e-09
v 0.0057176399 -0.54495117 -3.7279946e-09
v -0.19491469 0.43564973 -3.7279946e-09
v 0.54589003 -0.053170614 -3.7279946e-09
v 0.21330612 0.55975431 -3.7279946e-09
v -0.56237535 -0.20375137 -3.7279946e-09
v -0.30420141 -0.44259922 -3.7279946e-09
v -0.21804881 -0.2202083 -3.7279946e-09
v 0.24100945 0.33622477 -3.7279946e-09
v 0.40088968 -0.039498104 -3.7279946e-09
v 0.064623178 0.074360239 -3.7279946e-09
v -0.060748708 -0.10335768 -3.7279946e-09
v -0.083007776 0.33247983 -3.7279946e-09
v 0.20317522 -0.23852929 -3.7279946e-09
v -0.42632838 0.056245841 -3.7279946e-09
v 0.028395538 -0.39802578 -3.7279946e-09
v -0.21678928 0.24129542 -3.7279946e-09
v 0.40966328 0.22743324 -3.7279946e-09
v 0.37922642 -0.30003697 -3.7279946e-09
v 0.20700007 -0.50399651 -3.7279946e-09
v -0.407201 -0.16760353 -3.7279946e-09
v -0.35530905 0.25967633 -3.7279946e-09
v -0.256947 -0.4073976 -3.7279946e-09
v -0.42088549 -0.26665 -3.7279946e-09
v 0.52626115 0.12538513 -3.7279946e-09
v -0.013958795 0.53741608 -3.7279946e-09
v 0.52530231 -0.1083857 -3.7279946e-09
v 0.2667625 0.42160778 -3.7279946e-09
v 0.10015408 0.5307105 -3.7279946e-09
v -0.48410164 0.24749108 -3.7279946e-09
v -0.35820764 -0.40949296 -3.7279946e-09
v -0.10863172 0.043965121 -3.7279946e-09
v 0.21352901 0.036004752 -3.7279946e-09
v -0.21730549 -0.071327803 -3.7279946e-09
v -0.075105548 -0.28272634 -3.7279946e-09
v 0.048598567 0.18074972 -3.7279946e-09
v 0.070004877 -0.35741492 -3.7279946e-09
v 0.28796526 -0.17236934 -3.7279946e-09
v 0.015675455 0.37478127 -3.7279946e-09
v 0.17290448 0.40117986 -3.7279946e-09
v -0.53774725 -0.055857574 -3.7279946e-09
v -0.32699278 0.1426842 -3.7279946e-09
v 0.3050425 0.1986323 -3.7279946e-09
v -0.33920537 -0.016958429 -3.7279946e-09
v -0.2674217 -0.34821763 -3.7279946e-09
v -0.056209359 -0.50705912 -3.7279946e-09
v 0.24970209 -0.41537847 -3.7279946e-09
v 0.069735098 -0.13486314 -3.7279946e-09
v 0.45262183 -0.057541326 -3.7279946e-09
v 0.50514985 -0.21362469 -3.7279946e-09
v 0.15882362 -0.27738018 -3.7279946e-09
v 0.42747121 0.10714405 -3.7279946e-09
v 0.43616174 -0.31428184 -3.7279946e-09
v -0.36549987 -0.35097008 -3.7279946e-09
v -0.40150052 0.29397168 -3.7279946e-09
v 0.10394097 -0.52571865 -3.7279946e-09
v -0.47278796 -0.24159716 -3.7279946e-09
v 0.54370321 0.0064651565 -3.7279946e-09
v -0.1035341 0.48246677 -3.7279946e-09
v 0.043238316 0.54019797 -3.7279946e-09
v -0.37261022 -0.22156981 -3.7279946e-09
v -0.4783507 0.088904326 -3.7279946e-09
v -0.24594137 0.43475713 -3.7279946e-09
v 0.29077239 0.09335431 -3.7279946e-09
v -0.20025034 -0.16950754 -3.7279946e-09
v -0.22866018 0.034190947 -3.7279946e-09
v 0.24706633 -0.019656743 -3.7279946e-09
v -0.053562456 -0.22822491 -3.7279946e-09
v -0.074749347 0.15614266 -3.7279946e-09
v 0.13133162 0.35596825 -3.7279946e-09
v 0.079158644 -0.033526383 -3.7279946e-09
v -0.031263436 -0.3891849 -3.7279946e-09
v 0.0096282346 0.21682818 -3.7279946e-09
v -0.3772772 0.15155768 -3.7279946e-09
v -0.24518755 0.29163977 -3.7279946e-09
v 0.23476017 -0.3572835 -3.7279946e-09
v -0.13499561 0.43326104 -3.7279946e-09
v 0.35977627 -0.24099893 -3.7279946e-09
v 0.35444588 0.24342337 -3.7279946e-09
v 0.49853996 -0.022293027 -3.7279946e-09
v -0.011530154 0.43033196 -3.7279946e-09
v -0.4822586 0.029179642 -3.7279946e-09
v -0.32271795 0.36157935 -3.7279946e-09
v 0.3997006 -0.35998549 -3.7279946e-09
v 0.51185332 0.18393324 -3.7279946e-09
v -0.1151859 -0.48382723 -3.7279946e-09
v 0.28400584 0.37655282 -3.7279946e-09
v -0.43930846 -0.067840023 -3.7279946e-09
v -0.32058054 -0.32067621 -3.7279946e-09
v 0.4097211 -0.095120594 -3.7279946e-09
v 0.12276199 0.083313196 -3.7279946e-09
v 0.30785278 -0.43875335 -3.7279946e-09
v -0.54095811 -0.1074195 -3.7279946e-09
v 0.12951487 -0.37567072 -3.7279946e-09
v 0.4522507 -0.20804407 -3.7279946e-09
v 0.48296196 0.089505704 -3.7279946e-09
v 0.048253721 -0.50866455 -3.7279946e-09
v -0.21125387 -0.36646607 -3.7279946e-09
v -0.13333446 0.5281946 -3.7279946e-09
v -0.41736975 0.34101686 -3.7279946e-09
v -0.097856862 -0.19040751 -3.7279946e-09
v 0.28017154 -0.075193231 -3.7279946e-09
v -0.32931523 0.043338826 -3.7279946e-09
v -0.24003484 -0.12649327 -3.7279946e-09
v 0.26533896 0.150377 -3.7279946e-09
v -0.13234513 -0.43040135 -3.7279946e-09
v -0.15461713 0.2407035 -3.7279946e-09
v 0.037983306 0.31301496 -3.7279946e-09
v 0.11659367 -0.089977764 -3.7279946e-09
v -0.073411282 -0.0013920631 -3.7279946e-09
v -0.20920162 0.14182524 -3.7279946e-09
v 0.041336512 -0.23786588 -3.7279946e-09
v 0.052867507 -0.29818027 -3.7279946e-09
v -0.0084166059 -0.48514564 -3.7279946e-09
v -0.22446841 -0.31248822 -3.7279946e-09
v 0.16502875 0.45733192 -3.7279946e-09
v 0.33896671 -0.34132807 -3.7279946e-09
v -0.49252408 -0.091062872 -3.7279946e-09
v -0.37779657 0.3823027 -3.7279946e-09
v 0.20151302 -0.45045498 -3.7279946e-09
v -0.10789997 0.38358431 -3.7279946e-09
v 0.22776337 0.38719468 -3.7279946e-09
v -0.22691282 0.38842161 -3.7279946e-09
v 0.49285105 0.032878535 -3.7279946e-09
v 0.39582213 -0.19594082 -3.7279946e-09
v 0.50077515 0.23464767 -3.7279946e-09
v 0.0064359287 0.064576498 -3.7279946e-09
v -0.28598976 0.24164552 -3.7279946e-09
v 0.24678877 -0.20076235 -3.7279946e-09
v -0.47149163 0.14693064 -3.7279946e-09
v 0.014781589 0.48412582 -3.7279946e-09
v 0.4712782 0.14634714 -3.7279946e-09
v -0.37119193 -0.29009006 -3.7279946e-09
v 0.35644451 -0.39933472 -3.7279946e-09
v -0.3942472 -0.10686228 -3.7279946e-09
v 0.47292884 -0.26384918 -3.7279946e-09
v -0.50627165 0.19224319 -3.7279946e-09
v -0.051690931 -0.55370584 -3.7279946e-09
v 0.36389129 0.18562488 -3.7279946e-09
v 0.26001487 -0.47201521 -3.7279946e-09
v -0.15900446 -0.060288949 -3.7279946e-09
v 0.17890459 -0.11824956 -3.7279946e-09
v 0.26899033 0.036999864 -3.7279946e-09
v 0.062038096 0.24698958 -3.7279946e-09
v -0.13480426 -0.27664948 -3.7279946e-09
v 0.13364251 -0.025513131 -3.7279946e-09
v 0.17068296 0.19889934 -3.7279946e-09
v -0.24485111 0.093357464 -3.7279946e-09
v -0.090432792 -0.38537477 -3.7279946e-09
v -0.05150831 0.054736614 -3.7279946e-09
v -0.43302449 -0.0057149379 -3.7279946e-09
v -0.12124698 0.28813558 -3.7279946e-09
v 0.10688646 0.19291921 -3.7279946e-09
v 0.34011585 -0.18252337 -3.7279946e-09
v 0.11398419 -0.31705218 -3.7279946e-09
v 0.2941767 0.31925898 -3.7279946e-09
v -0.33851253 0.20158031 -3.7279946e-09
v 0.3471179 -0.071479935 -3.7279946e-09
v -0.36771193 0.088819166 -3.7279946e-09
v 0.025665262 -0.17369615 -3.7279946e-09
v -0.31649075 -0.19713937 -3.7279946e-09
v 0.085123112 -0.41567916 -3.7279946e-09
v 0.11031495 0.47173765 -3.7279946e-09
v 0.44871393 -0.0036906398 -3.7279946e-09
v 0.39692291 0.35165978 -3.7279946e-09
v 0.41780291 0.16689806 -3.7279946e-09
v -0.046059849 0.37990875 -3.7279946e-09
v -0.46260449 -0.18382285 -3.7279946e-09
v 0.15609534 -0.53702497 -3.7279946e-09
v 0.27847359 -0.32045122 -3.7279946e-09
v -0.265524 0.34544624 -3.7279946e-09
v -0.010969675 -0.27876377 -3.7279946e-09
v -0.32462407 -0.25871644 -3.7279946e-09
v 0.2691659 0.47059587 -3.7279946e-09
v -0.15586615 -0.52226073 -3.7279946e-09
v 0.20228157 0.30231317 -3.7279946e-09
v -0.19385702 -0.015111611 -3.7279946e-09
v -0.27784593 0.055007339 -3.7279946e-09
v -0.036170131 -0.051607873 -3.7279946e-09
v -0.15667885 -0.21614585 -3.7279946e-09
v 0.19050108 -0.018693067 -3.7279946e-09
v 0.086758081 0.1331673 -3.7279946e-09
v -0.14266948 0.13891403 -3.7279946e-09
v 0.30452102 -0.01777134 -3.7279946e-09
v 0.23705949 0.09336167 -3.7279946e-09
v 0.0041953765 -0.10877786 -3.7279946e-09
v 0.3029934 -0.22526429 -3.7279946e-09
v -0.11144095 -0.33071459 -3.7279946e-09
v 0.095990174 0.30401006 -3.7279946e-09
v 0.040726723 -0.45430926 -3.7279946e-09
v -0.35432813 -0.15231781 -3.7279946e-09
v 0.4405375 0.32273583 -3.7279946e-09
v -0.33741491 -0.084864267 -3.7279946e-09
v -0.002750041 0.26661951 -3.7279946e-09
v -0.16864963 0.38587207 -3.7279946e-09
v -0.24141001 0.19253862 -3.7279946e-09
v -0.25946922 -0.1801494 -3.7279946e-09
v 0.099469438 -0.25723613 -3.7279946e-09
v 0.19180792 -0.17654744 -3.7279946e-09
v -0.21121917 -0.50854679 -3.7279946e-09
v 0.37649079 0.12672877 -3.7279946e-09
v -0.0070953414 -0.21649385 -3.7279946e-09
v 0.34905135 0.30434544 -3.7279946e-09
v -0.065785141 -0.4447503 -3.7279946e-09
v 0.15197507 -0.48676893 -3.7279946e-09
v 0.43935052 0.052036933 -3.7279946e-09
v -0.42265283 0.25117609 -3.7279946e-09
v -0.42326577 0.16426231 -3.7279946e-09
v -0.032225851 0.11165122 -3.7279946e-09
v 0.18062356 0.090101404 -3.7279946e-09
v -0.30494262 0.095368715 -3.7279946e-09
v 0.24424027 0.27572008 -3.7279946e-09
v -0.097614524 -0.053886485 -3.7279946e-09
v -0.18202502 -0.11448674 -3.7279946e-09
v -0.09077932 0.10058262 -3.7279946e-09
v 0.31189736 -0.12592974 -3.7279946e-09
v 0.04259562 0.015873741 -3.7279946e-09
v 0.32367784 0.041827497 -3.7279946e-09
v -0.061082094 0.27872907 -3.7279946e-09
v 0.22036285 -0.074188657 -3.7279946e-09
v 0.074278443 0.3660203 -3.7279946e-09
v 0.36968323 0.40397648 -3.7279946e-09
v -0.18785797 -0.26800415 -3.7279946e-09
v 0.26136482 -0.26164343 -3.7279946e-09
v -0.050607505 -0.3340043 -3.7279946e-09
v -0.0093733851 -0.43529122 -3.7279946e-09
v -0.23098578 0.48482707 -3.7279946e-09
v -0.17967944 0.19085644 -3.7279946e-09
v -0.40977472 -0.37861874 -3.7279946e-09
v 0.48779611 -0.15917057 -3.7279946e-09
v -0.16803038 0.037161248 -3.7279946e-09
v -0.18969574 0.089288388 -3.7279946e-09
v -0.11652322 0.19544668 -3.7279946e-09
v 0.020565643 -0.043069573 -3.7279946e-09
v 0.18683394 0.34861189 -3.7279946e-09
v -0.12360518 -0.10344768 -3.7279946e-09
v 0.14620205 0.14200608 -3.7279946e-09
v -0.14473751 0.33662008 -3.7279946e-09
v -0.38093909 0.021874691 -3.7279946e-09
v -0.29244616 0.18643022 -3.7279946e-09
v 0.1670442 -0.066725056 -3.7279946e-09
v 0.33946506 0.092844085 -3.7279946e-09
v -0.16960006 -0.32292402 -3.7279946e-09
v -0.27701641 -0.29117822 -3.7279946e-09
v -0.29920009 -0.13701317 -3.7279946e-09
v -0.53649403 0.0043364794 -3.7279946e-09
v 0.57914033 -0.1501846 -3.7279946e-09
v -0.10458094 -0.23829904 -3.7279946e-09
v -0.091499186 -0.14311526 -3.7279946e-09
v 0.16103989 -0.57705969 -3.7279946e-09
v 0.18933828 0.25211391 -3.7279946e-09
v -0.099502135 0.24304278 -3.7279946e-09
v 0.099851922 0.024835424 -3.7279946e-09
v -0.29949447 -0.042470718 -3.7279946e-09
v -0.5268005 0.12840043 -3.7279946e-09
v 0.057530602 -0.08328933 -3.7279946e-09
v -0.012807451 0.16725132 -3.7279946e-09
v -0.3375642 0.41951872 -3.7279946e-09
v 0.15298017 0.30093063 -3.7279946e-09
v -0.43981417 0.40667426 -3.7279946e-09
v -0.19018357 0.51943783 -3.7279946e-09
v -0.28940458 0.45579904 -3.7279946e-09
v -0.29349857 0.52307448 -3.7279946e-09
v -0.24896719 -0.02734544 -3.7279946e-09
v -0.23706895 0.54889377 -3.7279946e-09
v -0.38683196 -0.043939783 -3.7279946e-09
v 0.061262087 -0.55810683 -3.7279946e-09
v 0.53968701 -0.15435114 -3.7279946e-09
f 287 343 34
f 283 350 144
f 344 117 272
f 277 372 312
f 21 188 76
f 76 137 21
f 57 113 224
f 360 23 162
f 331 306 74
f 112 269 177
f 95 331 74
f 192 155 264
f 24 138 66
f 321 228 105
f 59 93 386
f 17 129 40
f 35 214 109
f 29 309 234
f 393 394 49
f 208 190 92
f 194 89 254
f 20 172 48
f 265 223 62
f 7 399 378
f 88 126 225
f 215 184 150
f 226 267 181
f 72 94 180
f 5 265 62
f 180 221 72
f 136 75 56
f 11 115 73
f 218 253 140
f 191 14 157
f 39 247 171
f 15 110 58
f 332 297 270
f 11 353 60
f 296 353 132
f 122 216 257
f 46 189 64
f 187 300 336
f 384 222 142
f 272 308 165
f 374 229 119
f 41 151 80
f 54 290 205
f 281 346 163
f 240 277 202
f 71 330 37
f 395 101 165
f 96 116 22
f 350 33 144
f 109 186 153
f 130 361 72
f 223 271 4
f 81 360 185
f 111 323 90
f 248 215 150
f 55 237 119
f 127 255 189
f 212 170 84
f 213 83 282
f 194 254 134
f 160 191 131
f 24 95 138
f 275 284 120
f 198 274 164
f 91 347 233
f 104 256 209
f 230 392 92
f 70 327 371
f 271 251 151
f 330 71 145
f 121 206 148
f 268 261 107
f 95 55 154
f 166 303 199
f 85 304 375
f 106 382 278
f 213 193 93
f 128 212 262
f 60 296 10
f 293 168 147
f 178 207 88
f 63 267 184
f 135 7 64
f 65 9 216
f 214 89 389
f 232 379 199
f 376 324 322
f 263 122 297
f 50 316 236
f 144 298 252
f 279 309 197
f 288 205 173
f 289 347 51
f 168 244 28
f 31 289 141
f 158 135 94
f 305 73 115
f 306 26 112
f 217 306 112
f 160 114 13
f 299 113 76
f 81 155 96
f 92 134 208
f 181 77 399
f 78 111 257
f 338 107 87
f 105 53 293
f 360 22 43
f 8 127 46
f 68 373 332
f 324 376 101
f 57 224 20
f 84 294 131
f 269 61 133
f 335 177 245
f 38 192 152
f 139 328 85
f 258 340 281
f 388 102 200
f 205 339 54
f 207 126 88
f 254 302 52
f 393 89 194
f 297 183 263
f 10 323 44
f 91 351 273
f 71 182 145
f 369 326 52
f 234 370 175
f 211 94 135
f 154 138 95
f 96 22 81
f 188 21 96
f 97 331 25
f 352 170 239
f 247 39 56
f 82 349 31
f 143 317 310
f 244 303 28
f 175 385 29
f 124 266 219
f 359 364 238
f 325 350 102
f 260 318 169
f 103 182 126
f 209 150 104
f 267 6 181
f 321 357 245
f 98 201 171
f 236 174 106
f 58 157 14
f 131 191 262
f 161 338 129
f 138 154 108
f 391 250 16
f 87 153 338
f 47 230 15
f 110 128 157
f 149 111 90
f 51 256 130
f 48 377 19
f 83 377 172
f 112 26 1
f 217 237 74
f 113 57 137
f 95 74 55
f 114 75 136
f 116 96 21
f 362 363 197
f 345 367 272
f 240 37 273
f 28 356 203
f 30 354 139
f 278 50 106
f 239 275 320
f 148 238 121
f 156 227 127
f 123 329 71
f 291 317 100
f 299 152 124
f 249 124 219
f 45 215 5
f 251 178 88
f 32 355 301
f 127 8 156
f 295 337 99
f 54 261 193
f 18 386 42
f 110 190 128
f 262 157 128
f 231 391 40
f 130 72 221
f 256 226 130
f 114 160 75
f 131 262 84
f 108 220 185
f 304 192 264
f 73 218 132
f 245 177 133
f 134 92 358
f 141 295 99
f 64 189 135
f 23 360 43
f 137 76 113
f 162 138 108
f 79 161 17
f 16 250 389
f 311 196 139
f 119 229 55
f 120 278 382
f 141 99 31
f 289 221 141
f 348 365 202
f 167 313 284
f 281 241 27
f 232 380 67
f 33 170 298
f 369 121 283
f 71 37 123
f 355 145 103
f 193 213 146
f 370 290 146
f 293 321 105
f 28 147 168
f 148 359 238
f 259 327 148
f 210 270 149
f 111 122 257
f 32 248 150
f 251 271 178
f 80 151 300
f 192 322 152
f 38 299 188
f 186 338 153
f 153 35 109
f 176 108 154
f 264 81 185
f 38 188 155
f 156 65 216
f 183 227 263
f 194 134 358
f 157 58 110
f 14 191 13
f 158 7 135
f 159 39 253
f 305 115 12
f 18 59 386
f 79 42 268
f 386 261 268
f 75 294 247
f 160 13 191
f 23 66 162
f 258 27 348
f 163 362 117
f 164 118 312
f 174 236 68
f 29 197 309
f 345 235 196
f 379 166 199
f 280 319 119
f 278 284 368
f 313 142 222
f 225 293 53
f 147 28 203
f 91 260 169
f 209 318 32
f 170 33 239
f 212 298 170
f 171 253 39
f 247 56 75
f 113 249 224
f 288 371 259
f 327 70 242
f 68 270 174
f 302 206 52
f 254 52 326
f 175 29 234
f 219 282 83
f 154 229 176
f 375 246 30
f 1 61 269
f 269 112 1
f 271 151 41
f 178 125 207
f 317 143 100
f 179 123 37
f 94 72 158
f 361 226 181
f 181 6 77
f 329 182 71
f 182 103 145
f 297 332 183
f 216 263 156
f 45 63 184
f 184 104 150
f 172 249 83
f 210 334 34
f 353 11 73
f 220 304 264
f 185 162 108
f 109 231 186
f 186 129 338
f 3 398 2
f 188 96 155
f 189 46 127
f 189 211 135
f 69 128 190
f 110 230 190
f 191 157 262
f 192 38 155
f 304 292 192
f 193 146 54
f 386 93 193
f 358 392 396
f 24 25 95
f 82 31 99
f 316 195 236
f 139 85 30
f 367 345 67
f 362 308 117
f 314 363 36
f 273 330 91
f 315 274 198
f 303 244 243
f 100 199 333
f 346 36 163
f 98 352 201
f 171 366 253
f 118 384 277
f 240 387 179
f 356 28 303
f 203 335 357
f 167 388 86
f 167 275 204
f 336 53 105
f 300 187 3
f 339 87 107
f 290 173 205
f 35 259 206
f 302 254 89
f 125 248 301
f 207 103 126
f 326 134 254
f 208 69 190
f 209 32 150
f 347 285 51
f 210 34 174
f 210 149 90
f 211 189 255
f 212 69 298
f 377 83 213
f 35 302 214
f 214 389 250
f 215 45 184
f 248 265 215
f 257 9 78
f 65 156 8
f 217 112 177
f 140 287 218
f 218 73 159
f 219 83 249
f 220 108 176
f 220 264 185
f 221 180 141
f 221 51 130
f 161 268 107
f 341 118 164
f 142 313 86
f 223 125 178
f 223 4 62
f 224 172 20
f 286 329 244
f 225 53 88
f 56 12 136
f 39 305 56
f 226 104 267
f 227 183 337
f 133 2 398
f 105 228 187
f 93 59 19
f 229 154 55
f 30 246 354
f 230 92 190
f 109 250 231
f 231 129 186
f 113 299 124
f 67 311 232
f 380 100 143
f 349 315 31
f 347 91 169
f 173 342 70
f 282 370 146
f 235 328 196
f 235 165 101
f 236 195 68
f 236 106 50
f 237 55 74
f 217 335 237
f 102 364 200
f 238 283 121
f 120 390 320
f 240 202 387
f 164 312 198
f 241 310 27
f 241 163 117
f 363 314 242
f 70 279 242
f 123 291 243
f 291 333 243
f 329 243 244
f 286 168 225
f 245 133 228
f 203 357 147
f 276 319 166
f 294 75 160
f 98 247 294
f 125 301 207
f 248 125 265
f 249 113 124
f 249 172 224
f 250 109 214
f 251 88 53
f 251 336 151
f 326 369 252
f 252 69 208
f 253 218 159
f 366 171 201
f 128 69 212
f 134 326 208
f 255 127 227
f 255 295 211
f 256 104 226
f 256 285 209
f 122 111 149
f 334 132 287
f 90 296 334
f 241 281 163
f 142 86 258
f 259 35 153
f 259 148 206
f 260 91 330
f 145 355 260
f 261 339 107
f 386 193 261
f 262 212 84
f 263 227 156
f 264 155 81
f 265 5 215
f 265 125 223
f 126 286 225
f 377 213 93
f 266 324 397
f 266 124 152
f 267 63 6
f 267 104 184
f 161 107 338
f 268 161 79
f 361 130 226
f 162 66 138
f 269 133 177
f 230 47 392
f 110 15 230
f 270 210 174
f 270 297 149
f 129 17 161
f 129 231 40
f 271 41 4
f 271 223 178
f 295 141 180
f 94 211 180
f 235 345 165
f 117 344 241
f 37 240 179
f 351 91 233
f 274 349 195
f 274 316 164
f 275 325 204
f 311 354 276
f 374 119 319
f 277 240 372
f 348 384 142
f 307 343 140
f 278 120 284
f 363 242 279
f 279 70 342
f 335 203 280
f 280 119 237
f 340 388 200
f 281 27 258
f 282 146 213
f 219 397 282
f 144 369 283
f 350 383 102
f 278 368 50
f 285 256 51
f 285 169 318
f 286 126 182
f 286 244 168
f 287 140 343
f 287 132 218
f 288 259 153
f 288 87 205
f 289 315 233
f 289 51 221
f 194 358 393
f 342 173 290
f 290 54 146
f 291 123 179
f 291 100 333
f 292 85 328
f 322 192 292
f 247 98 171
f 160 131 294
f 295 180 211
f 296 132 334
f 323 10 296
f 332 270 68
f 297 122 149
f 82 183 332
f 255 227 337
f 298 69 252
f 298 144 33
f 299 38 152
f 299 76 188
f 187 336 105
f 300 381 80
f 301 248 32
f 301 103 207
f 302 35 206
f 302 89 214
f 303 166 356
f 303 333 199
f 85 375 30
f 304 85 292
f 305 12 56
f 305 39 159
f 306 97 26
f 306 217 74
f 9 257 216
f 140 366 307
f 390 201 320
f 308 272 117
f 395 197 29
f 309 342 234
f 310 365 27
f 310 344 143
f 311 67 196
f 276 379 311
f 312 351 198
f 312 118 277
f 313 368 284
f 314 359 242
f 314 200 364
f 315 289 31
f 315 198 233
f 316 274 195
f 316 341 164
f 317 387 365
f 317 291 179
f 318 260 355
f 318 209 285
f 229 374 246
f 280 356 319
f 320 275 120
f 320 352 239
f 321 245 228
f 321 293 147
f 101 376 235
f 322 266 152
f 111 44 323
f 323 296 90
f 324 266 322
f 175 397 324
f 325 102 204
f 325 239 33
f 326 252 208
f 294 84 98
f 70 371 173
f 327 242 359
f 328 376 292
f 328 139 196
f 329 123 243
f 329 286 182
f 330 273 37
f 330 145 260
f 331 95 25
f 331 97 306
f 216 122 263
f 373 68 195
f 183 82 337
f 333 303 243
f 199 100 232
f 293 225 168
f 334 287 34
f 334 210 90
f 335 280 237
f 335 217 177
f 336 300 151
f 336 251 53
f 176 375 220
f 229 246 176
f 337 82 99
f 337 295 255
f 153 87 288
f 339 261 54
f 339 205 87
f 340 258 86
f 340 200 346
f 73 305 159
f 341 222 118
f 341 316 50
f 342 309 279
f 342 290 234
f 343 106 34
f 307 382 343
f 344 367 143
f 344 310 241
f 345 196 67
f 345 272 165
f 346 281 340
f 346 314 36
f 347 289 233
f 347 169 285
f 384 202 277
f 348 142 258
f 349 274 315
f 82 373 349
f 350 325 33
f 350 283 383
f 351 372 273
f 351 233 198
f 352 84 170
f 352 320 201
f 353 73 132
f 354 311 139
f 354 374 276
f 355 32 318
f 355 103 301
f 356 280 203
f 356 166 319
f 167 86 313
f 357 321 147
f 357 335 245
f 394 393 358
f 359 314 364
f 359 148 327
f 360 81 22
f 360 162 185
f 362 163 36
f 362 197 308
f 52 206 121
f 239 325 275
f 363 362 36
f 363 279 197
f 364 383 238
f 200 314 346
f 365 348 27
f 365 310 317
f 366 140 253
f 366 201 390
f 367 380 143
f 367 344 272
f 368 341 50
f 368 222 341
f 369 52 121
f 369 144 252
f 111 78 44
f 370 282 397
f 370 234 290
f 371 288 173
f 371 327 259
f 372 240 273
f 372 351 312
f 373 82 332
f 373 195 349
f 374 354 246
f 374 319 276
f 228 398 187
f 375 176 246
f 375 304 220
f 376 328 235
f 376 322 292
f 377 93 19
f 377 48 172
f 106 343 382
f 106 174 34
f 379 232 311
f 379 276 166
f 84 352 98
f 380 367 67
f 380 232 100
f 381 300 3
f 307 390 382
f 383 364 102
f 383 283 238
f 384 118 222
f 384 348 202
f 385 175 324
f 368 313 222
f 386 268 42
f 101 395 385
f 387 202 365
f 387 317 179
f 284 275 167
f 340 86 388
f 388 204 102
f 389 49 16
f 390 120 382
f 390 307 366
f 391 231 250
f 392 358 92
f 393 49 389
f 389 89 393
f 388 167 204
f 197 395 308
f 394 358 396
f 399 7 158
f 395 165 308
f 395 29 385
f 396 392 47
f 361 158 72
f 181 399 361
f 397 219 266
f 397 175 370
f 324 101 385
f 398 3 187
f 398 228 133
f 399 158 361
f 399 77 378
f 296 60 353
f 133 61 2
